<svg xmlns="http://www.w3.org/2000/svg" viewBox="0 0 35.4 5.99"><defs><style>.cls-1{fill:#fbed1d;}.cls-2{fill:#fff;}</style></defs><title>Asset 7</title><g id="Layer_2" data-name="Layer 2"><g id="Layer_1-2" data-name="Layer 1"><polygon class="cls-1" points="3.15 0 3.9 2.29 6.3 2.29 4.36 3.71 5.1 5.99 3.15 4.58 1.2 5.99 1.95 3.71 0 2.29 2.41 2.29 3.15 0"/><polygon class="cls-1" points="10.43 0 11.17 2.29 13.58 2.29 11.63 3.71 12.37 5.99 10.43 4.58 8.48 5.99 9.22 3.71 7.28 2.29 9.68 2.29 10.43 0"/><polygon class="cls-1" points="17.7 0 18.45 2.29 20.85 2.29 18.91 3.71 19.65 5.99 17.7 4.58 15.75 5.99 16.5 3.71 14.55 2.29 16.96 2.29 17.7 0"/><polygon class="cls-1" points="24.98 0 25.72 2.29 28.13 2.29 26.18 3.71 26.92 5.99 24.98 4.58 23.03 5.99 23.77 3.71 21.82 2.29 24.23 2.29 24.98 0"/><polygon class="cls-2" points="32.25 0 32.99 2.29 35.4 2.29 33.45 3.71 34.2 5.99 32.25 4.58 30.3 5.99 31.05 3.71 29.1 2.29 31.51 2.29 32.25 0"/></g></g></svg>