<svg xmlns="http://www.w3.org/2000/svg" viewBox="0 0 53.28 53.28"><defs><style>.cls-1{fill:#153641;}</style></defs><title>Asset 26</title><g id="Layer_2" data-name="Layer 2"><g id="Layer_1-2" data-name="Layer 1"><path class="cls-1" d="M6.22,46.17A6.23,6.23,0,0,0,0,52.39a.89.89,0,0,0,.89.89H11.54a.89.89,0,0,0,.89-.89A6.22,6.22,0,0,0,6.22,46.17ZM1.87,51.5a4.42,4.42,0,0,1,3.46-3.45v1.67H7.1V48.05a4.44,4.44,0,0,1,3.47,3.45Z"/><path class="cls-1" d="M52.39,38.18H50.83l-.15-.37,1.1-1.1a.89.89,0,0,0,0-1.26L48,31.69a.8.8,0,0,0-.66-.25,4.44,4.44,0,0,0,2.37-3.91V4.44A4.44,4.44,0,0,0,45.29,0H4.44A4.44,4.44,0,0,0,0,4.44V27.53A4.45,4.45,0,0,0,4.44,32H16l-3.36,6.21H11.1a3.11,3.11,0,0,0,0,6.22H30.19a.89.89,0,0,0,.89.89h1.56a2.75,2.75,0,0,0,.15.36l-1.1,1.11a.88.88,0,0,0,0,1.25l3.76,3.77a.89.89,0,0,0,1.26,0l1.1-1.1.37.15v1.56a.89.89,0,0,0,.89.89H44.4a.89.89,0,0,0,.89-.89V50.83l.36-.15,1.11,1.1a.88.88,0,0,0,1.25,0L51.78,48a.88.88,0,0,0,0-1.25l-1.1-1.11.15-.36h1.56a.89.89,0,0,0,.89-.89V39.07A.89.89,0,0,0,52.39,38.18ZM1.78,4.44A2.66,2.66,0,0,1,4.44,1.78H45.29A2.67,2.67,0,0,1,48,4.44V23.09H1.78ZM4.44,30.19a2.67,2.67,0,0,1-2.66-2.66V24.86H48v2.67a2.67,2.67,0,0,1-2.66,2.66H4.44Zm42.3,1.51-1.09,1.09a2.75,2.75,0,0,0-.36-.15V32A4.34,4.34,0,0,0,46.74,31.7ZM38.18,32v.67l-.37.15L37,32Zm-3,0-.77.76L33.89,32Zm-5,10.65H11.1a1.33,1.33,0,0,1,0-2.66H30.19Zm-15.5-4.44L18,32h13.7l1.39,2-1.44,1.44a.89.89,0,0,0,0,1.26l1.1,1.1a2.87,2.87,0,0,0-.15.37h-18ZM51.5,43.51H50.21a.89.89,0,0,0-.85.62,9,9,0,0,1-.54,1.3.87.87,0,0,0,.16,1l.92.92L47.39,49.9,46.47,49a.88.88,0,0,0-1-.16,9,9,0,0,1-1.3.54.89.89,0,0,0-.62.85V51.5H40V50.21a.89.89,0,0,0-.62-.85,9,9,0,0,1-1.3-.54A.88.88,0,0,0,37,49l-.92.92-2.51-2.51.92-.92a.88.88,0,0,0,.16-1,8,8,0,0,1-.54-1.3.89.89,0,0,0-.85-.62H32V40h1.29a.89.89,0,0,0,.85-.62,8,8,0,0,1,.54-1.3.9.9,0,0,0-.16-1l-.92-.92,2.51-2.51.92.92a.88.88,0,0,0,1,.16,8,8,0,0,1,1.3-.54.89.89,0,0,0,.62-.85V32h3.55v1.29a.89.89,0,0,0,.62.85,8,8,0,0,1,1.3.54.87.87,0,0,0,1-.16l.92-.92,2.52,2.51L49,37a.88.88,0,0,0-.16,1,9,9,0,0,1,.54,1.3.89.89,0,0,0,.85.62H51.5Z"/><path class="cls-1" d="M41.73,36.41a5.33,5.33,0,1,0,5.33,5.32A5.33,5.33,0,0,0,41.73,36.41Zm0,8.88a3.56,3.56,0,1,1,3.56-3.56A3.56,3.56,0,0,1,41.73,45.29Z"/><path class="cls-1" d="M17.5,6.84,16.24,5.59,10,11.8a.89.89,0,0,0,0,1.26l6.21,6.21L17.5,18l-5.59-5.59Z"/><path class="cls-1" d="M37,11.8,30.82,5.59,29.56,6.84l5.59,5.59L29.56,18l1.26,1.25L37,13.06A.89.89,0,0,0,37,11.8Z"/><rect class="cls-1" x="14.6" y="10.66" width="17.86" height="1.78" transform="translate(2.68 27.43) rotate(-63.43)"/><rect class="cls-1" x="34.63" y="17.76" width="1.78" height="1.78"/><rect class="cls-1" x="38.18" y="17.76" width="1.78" height="1.78"/><rect class="cls-1" x="41.73" y="17.76" width="1.78" height="1.78"/></g></g></svg>