<svg xmlns="http://www.w3.org/2000/svg" viewBox="0 0 14.26 14.26"><defs><style>.cls-1{fill:#4062ac;}.cls-2{fill:#fff;}</style></defs><title>Asset 31</title><g id="Layer_2" data-name="Layer 2"><g id="Layer_1-2" data-name="Layer 1"><path class="cls-1" d="M7.13,14.26h0A7.13,7.13,0,0,1,0,7.13H0A7.13,7.13,0,0,1,7.13,0h0a7.13,7.13,0,0,1,7.13,7.13h0A7.13,7.13,0,0,1,7.13,14.26Z"/><path class="cls-2" d="M6.07,9.5a1.5,1.5,0,0,0,.56-.25A1.35,1.35,0,0,0,7,8.85a1.43,1.43,0,0,0,.23-.79A1.3,1.3,0,0,0,7,7.33a1.11,1.11,0,0,0-.57-.44,1.51,1.51,0,0,0,.38-.29,1.12,1.12,0,0,0,.23-.73,1.32,1.32,0,0,0-.23-.77,1.57,1.57,0,0,0-1.3-.53H3.11v5H5.36A4,4,0,0,0,6.07,9.5Zm-2-4.06H5.19a1.65,1.65,0,0,1,.59.08A.44.44,0,0,1,6.05,6a.49.49,0,0,1-.2.44,1,1,0,0,1-.53.12H4.11Zm0,3.26V7.37H5.34a1.34,1.34,0,0,1,.5.08A.54.54,0,0,1,6.15,8a.64.64,0,0,1-.32.62,1.2,1.2,0,0,1-.51.09Z"/><path class="cls-2" d="M8.05,9.24a2,2,0,0,0,1.3.45,1.79,1.79,0,0,0,1.39-.54,1.17,1.17,0,0,0,.36-.67h-1a.76.76,0,0,1-.19.26.85.85,0,0,1-.54.17,1,1,0,0,1-.53-.14A.91.91,0,0,1,8.46,8h2.69a4.82,4.82,0,0,0,0-.73,1.8,1.8,0,0,0-.3-.77A1.49,1.49,0,0,0,10.19,6a2.05,2.05,0,0,0-.87-.18A1.79,1.79,0,0,0,8,6.29a2,2,0,0,0-.51,1.47A1.82,1.82,0,0,0,8.05,9.24Zm.69-2.46a.78.78,0,0,1,.58-.21.84.84,0,0,1,.57.2.79.79,0,0,1,.26.58H8.49A1,1,0,0,1,8.74,6.78Z"/><rect class="cls-2" x="8.17" y="4.86" width="2.17" height="0.5"/></g></g></svg>