<svg xmlns="http://www.w3.org/2000/svg" viewBox="0 0 50.09 50.09"><defs><style>.cls-1{fill:#153641;}</style></defs><title>Asset 23</title><g id="Layer_2" data-name="Layer 2"><g id="Layer_1-2" data-name="Layer 1"><path class="cls-1" d="M7.51,1.67H35.06V25h1.67V8.35h5.84V25h1.67V7.51a.83.83,0,0,0-.83-.83H36.73V.83A.83.83,0,0,0,35.9,0H6.68a.84.84,0,0,0-.84.83V8.35H7.51Z"/><path class="cls-1" d="M35.9,43.41a.84.84,0,0,0,.83-.84v-2.5H35.06v1.67H7.51V40.07H5.84v2.5a.85.85,0,0,0,.84.84h6.68v5.84a.84.84,0,0,0,.83.84H43.41a.84.84,0,0,0,.83-.84V40.07H42.57v8.35H15v-5Z"/><path class="cls-1" d="M.83,25H25.88a.83.83,0,0,0,.83-.83V10.85a.83.83,0,0,0-.83-.83H.83a.83.83,0,0,0-.83.83V24.21A.83.83,0,0,0,.83,25Zm.84-13.35H25v1.86L13.36,16.67,1.67,13.55Zm0,3.59,11.47,3a.79.79,0,0,0,.43,0l11.47-3v8.09H1.67Z"/><path class="cls-1" d="M.83,38.4h16.7a.83.83,0,0,0,.83-.84v-10a.84.84,0,0,0-.83-.84H.83a.84.84,0,0,0-.83.84v10A.83.83,0,0,0,.83,38.4Zm.84-10h15v8.35h-15Z"/><path class="cls-1" d="M30.05,9.18a.84.84,0,0,0,.27,0l2.5-.83a.85.85,0,0,0,.57-.8V5a.83.83,0,0,0-.57-.79l-2.5-.84a.8.8,0,0,0-.53,0l-2.51.84a.83.83,0,0,0-.57.79v2.5a.85.85,0,0,0,.57.8l2.51.83A.75.75,0,0,0,30.05,9.18ZM28.38,5.61l1.67-.56,1.67.56v1.3l-1.67.56-1.67-.56Z"/><path class="cls-1" d="M14.56,31l-1.67-.83a.81.81,0,0,0-.74,0L10.48,31a.82.82,0,0,0-.46.75v1.67a.82.82,0,0,0,.46.75l1.67.84a.87.87,0,0,0,.74,0l1.67-.84a.83.83,0,0,0,.47-.75V31.72A.83.83,0,0,0,14.56,31Zm-1.2,1.9-.84.42-.83-.42v-.63l.83-.42.84.42Z"/><path class="cls-1" d="M3.34,30.05h5v1.67h-5Z"/><path class="cls-1" d="M3.34,33.39h5v1.67h-5Z"/><path class="cls-1" d="M47.58,33.39H30.89a.82.82,0,0,0-.59.25L28.63,35.3a.84.84,0,0,0,0,1.19l1.67,1.66a.82.82,0,0,0,.59.25H47.58a2.51,2.51,0,1,0,0-5Zm-2.5,3.34H31.23l-.83-.83.83-.84H45.08Zm2.5,0h-.83V35.06h.83a.84.84,0,1,1,0,1.67Z"/><path class="cls-1" d="M47.58,26.71H30.89a.82.82,0,0,0-.59.25l-1.67,1.67a.83.83,0,0,0,0,1.18l1.67,1.67a.85.85,0,0,0,.59.24H47.58a2.51,2.51,0,1,0,0-5Zm-2.5,3.34H31.23l-.83-.83.83-.84H45.08Zm2.5,0h-.83V28.38h.83a.85.85,0,0,1,.84.84A.84.84,0,0,1,47.58,30.05Z"/><path class="cls-1" d="M3.34,19.2h2.5v1.67H3.34Z"/></g></g></svg>