<svg xmlns="http://www.w3.org/2000/svg" viewBox="0 0 14.26 14.26"><defs><style>.cls-1{fill:#3f5c9a;}.cls-2{fill:#fff;}</style></defs><title>Asset 28</title><g id="Layer_2" data-name="Layer 2"><g id="Layer_1-2" data-name="Layer 1"><path class="cls-1" d="M7.13,14.26h0A7.13,7.13,0,0,1,0,7.13H0A7.13,7.13,0,0,1,7.13,0h0a7.13,7.13,0,0,1,7.13,7.13h0A7.13,7.13,0,0,1,7.13,14.26Z"/><path class="cls-2" d="M6,11.44H7.78V7.09H9l.13-1.45H7.78V4.81c0-.34.07-.48.4-.48h.94V2.82H7.92C6.63,2.82,6,3.39,6,4.48V5.64h-.9V7.11H6Z"/></g></g></svg>