<svg xmlns="http://www.w3.org/2000/svg" viewBox="0 0 57.53 57.47"><defs><style>.cls-1{fill:#153641;}</style></defs><title>Asset 25</title><g id="Layer_2" data-name="Layer 2"><g id="Layer_1-2" data-name="Layer 1"><path class="cls-1" d="M6.21,3.23A2.47,2.47,0,1,0,8.68,5.7,2.48,2.48,0,0,0,6.21,3.23Zm0,3.26A.79.79,0,1,1,7,5.7.79.79,0,0,1,6.21,6.49Z"/><path class="cls-1" d="M12.5,3.23A2.47,2.47,0,1,0,15,5.7,2.48,2.48,0,0,0,12.5,3.23Zm0,3.26a.79.79,0,1,1,.79-.79A.79.79,0,0,1,12.5,6.49Z"/><path class="cls-1" d="M18.79,3.23A2.47,2.47,0,1,0,21.26,5.7,2.48,2.48,0,0,0,18.79,3.23Zm0,3.26a.79.79,0,1,1,0-1.57.79.79,0,1,1,0,1.57Z"/><path class="cls-1" d="M56.62,16.61a.85.85,0,0,0,.85-.84l.06-12.06A3.71,3.71,0,0,0,53.83,0H3.71A3.71,3.71,0,0,0,0,3.71V44.45a3.71,3.71,0,0,0,3.14,3.66,3.56,3.56,0,0,0,.57,0H20.09v3H17.55a3.08,3.08,0,0,0-3.08,3.08v1.82a1.4,1.4,0,0,0,1.4,1.4h4a.85.85,0,0,0,0-1.69H16.16V54.25a1.4,1.4,0,0,1,1.39-1.4H39.92a1.4,1.4,0,0,1,1.39,1.4v1.53H25.12a.85.85,0,0,0,0,1.69H41.59A1.41,1.41,0,0,0,43,56.07V54.25a3.08,3.08,0,0,0-3.08-3.08H37.38v-3H53.76a3.43,3.43,0,0,0,.56,0,3.71,3.71,0,0,0,3.15-3.66V21a.85.85,0,0,0-1.69,0V39.57H29.46V11.45H55.78v4.32A.85.85,0,0,0,56.62,16.61ZM1.75,11.45h26V39.51h-26ZM35.69,51.17H21.77v-3H35.69Zm20.09-9.92v3.2a2,2,0,0,1-1.81,2H3.5a2,2,0,0,1-1.82-2v-3.2ZM28.62,9.77H1.75V3.71a2,2,0,0,1,2-2h50a2,2,0,0,1,2,2V9.77Z"/><path class="cls-1" d="M5.27,14.81H9.54a.84.84,0,0,0,0-1.68H5.27a.84.84,0,0,0,0,1.68Z"/><path class="cls-1" d="M12.46,14.81h2a.84.84,0,0,0,0-1.68h-2a.84.84,0,1,0,0,1.68Z"/><path class="cls-1" d="M11.67,16.1H8.86a.84.84,0,1,0,0,1.68h2.81a.84.84,0,1,0,0-1.68Z"/><path class="cls-1" d="M24.92,19.18H22.11a.84.84,0,1,0,0,1.68h2.81a.84.84,0,1,0,0-1.68Z"/><path class="cls-1" d="M13.41,16.94a.85.85,0,0,0,.84.84H21a.84.84,0,0,0,0-1.68H14.25A.84.84,0,0,0,13.41,16.94Z"/><path class="cls-1" d="M10.72,20a.84.84,0,0,0,.84.84H13a.84.84,0,0,0,0-1.68H11.56A.83.83,0,0,0,10.72,20Z"/><path class="cls-1" d="M19.53,20.86a.84.84,0,1,0,0-1.68h-4a.84.84,0,1,0,0,1.68Z"/><path class="cls-1" d="M10.38,30.93a.85.85,0,0,0-.84-.84H5.27a.84.84,0,0,0,0,1.68H9.54A.84.84,0,0,0,10.38,30.93Z"/><path class="cls-1" d="M12.46,30.09a.84.84,0,1,0,0,1.68h2a.84.84,0,0,0,0-1.68Z"/><path class="cls-1" d="M12.51,33.9a.85.85,0,0,0-.84-.84H8.86a.84.84,0,0,0,0,1.68h2.81A.84.84,0,0,0,12.51,33.9Z"/><path class="cls-1" d="M13,36.14H11.56a.84.84,0,0,0,0,1.68H13a.84.84,0,0,0,0-1.68Z"/><path class="cls-1" d="M24.92,36.14H22.11a.84.84,0,0,0,0,1.68h2.81a.84.84,0,0,0,0-1.68Z"/><path class="cls-1" d="M21.83,33.9a.85.85,0,0,0-.84-.84H14.25a.84.84,0,0,0,0,1.68H21A.84.84,0,0,0,21.83,33.9Z"/><path class="cls-1" d="M19.53,36.14h-4a.84.84,0,1,0,0,1.68h4a.84.84,0,0,0,0-1.68Z"/><path class="cls-1" d="M5.27,24.72H7.63a.85.85,0,0,0,0-1.69H5.27a.85.85,0,0,0,0,1.69Z"/><path class="cls-1" d="M19.47,23.88a.85.85,0,0,0-.84-.85H10a.85.85,0,1,0,0,1.69h8.64A.85.85,0,0,0,19.47,23.88Z"/><path class="cls-1" d="M17.9,26.85a.84.84,0,0,0-.84-.84H8.86a.84.84,0,0,0,0,1.68h8.2A.85.85,0,0,0,17.9,26.85Z"/><path class="cls-1" d="M19.42,27.69H21A.84.84,0,0,0,21,26H19.42a.84.84,0,1,0,0,1.68Z"/><path class="cls-1" d="M38.54,32.55H33.15a.84.84,0,0,0,0,1.68h5.39a.84.84,0,1,0,0-1.68Z"/><path class="cls-1" d="M52.24,32.55H41.57a.84.84,0,1,0,0,1.68H52.24a.84.84,0,1,0,0-1.68Z"/><path class="cls-1" d="M38.54,35.8H33.15a.85.85,0,0,0,0,1.69h5.39a.85.85,0,1,0,0-1.69Z"/><path class="cls-1" d="M52.24,35.8H41.57a.85.85,0,0,0,0,1.69H52.24a.85.85,0,0,0,0-1.69Z"/><path class="cls-1" d="M53.11,15.3a2.18,2.18,0,0,0-2.18-2.17H34.46a2.17,2.17,0,0,0-2.17,2.17V26.7h0v2a2.18,2.18,0,0,0,2.17,2.18H50.93a2.19,2.19,0,0,0,2.18-2.18ZM51.42,28.7a.49.49,0,0,1-.49.49H34.46A.49.49,0,0,1,34,28.7V27.05l6.17-6.16,4.25,4.8a.85.85,0,0,0,1.19.07.84.84,0,0,0,.07-1.19l-.38-.44,1.9-1.9L51.42,27Zm0-4.21-3.24-3.65a1.3,1.3,0,0,0-1-.45,1.35,1.35,0,0,0-1,.39l-2.09,2.09-3-3.38a1.34,1.34,0,0,0-1.94,0L34,24.67V15.3a.49.49,0,0,1,.49-.49H50.93a.49.49,0,0,1,.49.49Z"/></g></g></svg>