<svg xmlns="http://www.w3.org/2000/svg" viewBox="0 0 28.15 28.15"><defs><style>.cls-1{fill:#6db2be;}.cls-2{fill:#90ccc6;}</style></defs><title>Asset 13</title><g id="Layer_2" data-name="Layer 2"><g id="Layer_1-2" data-name="Layer 1"><circle class="cls-1" cx="14.08" cy="14.08" r="14.08"/><g id="Layer_1-2-2" data-name="Layer 1-2"><path class="cls-2" d="M19.86,9.34H8.28a.65.65,0,0,0-.64.65V17.7a.65.65,0,0,0,.64.65h7.41a3.27,3.27,0,0,1,2.1.77l2.72,2.33V10A.65.65,0,0,0,19.86,9.34ZM17.37,15.7H10.86a.64.64,0,0,1-.68-.6.65.65,0,0,1,.6-.69h6.51a.65.65,0,0,1,.08,1.29Zm0-2.57H10.86a.65.65,0,0,1-.08-1.29h6.51a.64.64,0,0,1,.68.61A.65.65,0,0,1,17.37,13.13Z"/></g></g></g></svg>