<svg xmlns="http://www.w3.org/2000/svg" viewBox="0 0 86.18 103.5"><defs><style>.cls-1{fill:#90ccc6;}</style></defs><title>Asset 12</title><g id="Layer_2" data-name="Layer 2"><g id="Layer_1-2" data-name="Layer 1"><path class="cls-1" d="M79.89.05c0-.06-.38,0-.46,0C79.53.11,80,.05,79.89.05Z"/><polygon class="cls-1" points="80.84 1.18 80.67 1.16 81.09 1.33 80.84 1.18"/><path class="cls-1" d="M80.83,2.23c.72-.1-.11-.38.14-.57l.17,0-.58-.08C80.65,1.78,81,2.07,80.83,2.23Z"/><path class="cls-1" d="M79.29,2.8c.28,0,.24.12.09-.14l-.07,0A.31.31,0,0,1,79.29,2.8Z"/><path class="cls-1" d="M79.31,2.69c0-.11-.24.07,0,0Z"/><path class="cls-1" d="M79.47,3.2l-.25-.15c-.17,0-.2.17-.32.12C79,3.32,79.2,3.29,79.47,3.2Z"/><path class="cls-1" d="M80,3.34l-.11-.08C79.81,3.28,79.79,3.3,80,3.34Z"/><path class="cls-1" d="M79.66,3.1l.22.16c.12,0,.35,0-.08-.07C80,3.2,79.81,3.17,79.66,3.1Z"/><path class="cls-1" d="M79.77,3c.16-.08.25-.19.5,0C80.17,2.69,79.67,2.73,79.77,3Z"/><path class="cls-1" d="M81.57,2.29l.21-.11-.24-.1C81.66,2.13,81.35,2.29,81.57,2.29Z"/><path class="cls-1" d="M79.1,4.11c.15,0,.4-.05.6-.06l-.18-.11A.75.75,0,0,1,79.1,4.11Z"/><path class="cls-1" d="M79.7,4.05l.26.16C80,4.07,79.86,4,79.7,4.05Z"/><polygon class="cls-1" points="80.78 3.37 80.23 3.1 80.79 3.42 80.78 3.37"/><polygon class="cls-1" points="79.08 4.73 78.73 4.64 79.26 4.8 79.08 4.73"/><path class="cls-1" d="M79.14,5.14c-.29-.07-.49.09-.67,0,0,.11.3.2.52.29C78.87,5.36,78.9,5.26,79.14,5.14Z"/><path class="cls-1" d="M79.32,5.59A2.32,2.32,0,0,0,79,5.45,1,1,0,0,0,79.32,5.59Z"/><path class="cls-1" d="M79.88,4.49a.9.9,0,0,0-.43.12l.43-.06Z"/><path class="cls-1" d="M79.89,4.55h0a.61.61,0,0,1,0,.14A.93.93,0,0,0,79.89,4.55Z"/><path class="cls-1" d="M79.88,4.47v0S79.94,4.48,79.88,4.47Z"/><path class="cls-1" d="M80.39,3.79c.24.09.5.29.86.1C81,3.82,80.75,3.93,80.39,3.79Z"/><path class="cls-1" d="M80.42,4.39l.1-.17a1.08,1.08,0,0,1-.4,0Z"/><polygon class="cls-1" points="80.55 4.48 80.42 4.39 80.38 4.46 80.55 4.48"/><path class="cls-1" d="M79.72,5.3a.3.3,0,0,1,.23.25.44.44,0,0,0,.13-.3C80,5.24,79.71,5.19,79.72,5.3Z"/><path class="cls-1" d="M79.84,4.93l0,0S79.91,4.93,79.84,4.93Z"/><path class="cls-1" d="M80,6.45l.08,0H80Z"/><path class="cls-1" d="M80.16,5.23c.08-.07,0-.11-.15-.16a.34.34,0,0,1,.07.18C80.14,5.26,80.18,5.26,80.16,5.23Z"/><path class="cls-1" d="M79.52,5.84a1.34,1.34,0,0,0,.24-.12C79.62,5.75,79.41,5.83,79.52,5.84Z"/><path class="cls-1" d="M79.75,5h0C79.64,5,79.68,5,79.75,5Z"/><path class="cls-1" d="M79.75,5l.26.09A.87.87,0,0,0,79.87,5Z"/><path class="cls-1" d="M82.69,6.72c-.39,0-.76-.21-.33-.37A6.07,6.07,0,0,0,80,6.43a.87.87,0,0,1,.56.18c.22-.06.51-.38.87-.24.2.23-.14.19-.35.3.49-.09.72.28,1.44.23l-.25-.19C82.41,6.7,82.59,6.78,82.69,6.72Z"/><path class="cls-1" d="M80.07,6.11,80,6a1.36,1.36,0,0,1-.54.24,1,1,0,0,0,.47.15L80,6.09Z"/><path class="cls-1" d="M80,5.73c.43,0,.61.22,1.08.12,0-.21-.36-.15-.55-.27.11.33-.24-.09-.48.14A.33.33,0,0,1,80,5.55a1.08,1.08,0,0,1-.19.17h0s.09,0,0,0h0l.17,0c-.09.09-.12,0-.17,0h-.07L80,6C80.08,6,80.07,5.88,80,5.73Z"/><path class="cls-1" d="M82.18,4.07h-.1S82.17,4.11,82.18,4.07Z"/><path class="cls-1" d="M81.92,4.2c-.06,0-.23,0-.19-.12s.21,0,.35,0a.47.47,0,0,0-.52,0l.06,0a1.67,1.67,0,0,1-.75.28A6.19,6.19,0,0,0,81.92,4.2Z"/><path class="cls-1" d="M81.08,5l.21.28.37-.14h-.22C81.53,5,81.25,5,81.08,5Z"/><polygon class="cls-1" points="79.74 6.48 79.28 6.44 79.92 6.6 79.74 6.48"/><polygon class="cls-1" points="79.79 6.84 79.39 6.82 79.63 6.92 79.79 6.84"/><path class="cls-1" d="M84.7,27.05l.11.08A.21.21,0,0,0,84.7,27.05Z"/><path class="cls-1" d="M84.73,26.46l-.2,0C84.64,26.47,84.72,26.48,84.73,26.46Z"/><path class="cls-1" d="M79.84,15.63c-.37.12-1,.25-.5.24l.43,0C79.69,15.75,79.74,15.69,79.84,15.63Z"/><path class="cls-1" d="M82.43,21.66l.13,0-.42-.08Z"/><path class="cls-1" d="M84.22,21.74l-.28.15A.85.85,0,0,0,84.22,21.74Z"/><path class="cls-1" d="M85.16,30.25l.44.09C85.6,30.19,85.38,30.26,85.16,30.25Z"/><path class="cls-1" d="M80,10.5c-.17.11-.24.19-.26.26C79.94,10.64,80.31,10.54,80,10.5Z"/><path class="cls-1" d="M80.1,26.81a.39.39,0,0,0,.26.07A.38.38,0,0,0,80.1,26.81Z"/><path class="cls-1" d="M79.69,11.05l.1-.05c-.07-.08-.13-.15-.1-.24C79.5,10.85,79.39,11,79.69,11.05Z"/><path class="cls-1" d="M84.8,41.86l0,0C84.81,41.89,84.81,41.88,84.8,41.86Z"/><path class="cls-1" d="M80.42,45.24a.49.49,0,0,1,0-.14S80.36,45.17,80.42,45.24Z"/><path class="cls-1" d="M79.6,8.28c0-.08,0,0,0,0Z"/><path class="cls-1" d="M81.32,7.91a.86.86,0,0,0,.21,0Z"/><path class="cls-1" d="M82.39,11.81h0C82.47,11.79,82.46,11.8,82.39,11.81Z"/><path class="cls-1" d="M79.8,8.16l-.13.1A.32.32,0,0,0,79.8,8.16Z"/><path class="cls-1" d="M79.59,8.18l0-.07C79.56,8.1,79.52,8.11,79.59,8.18Z"/><path class="cls-1" d="M79.62,8.38a.21.21,0,0,1,0-.12.11.11,0,0,1-.07,0A.22.22,0,0,1,79.62,8.38Z"/><path class="cls-1" d="M83.64,35.64h0C83.78,35.73,83.75,35.7,83.64,35.64Z"/><path class="cls-1" d="M84.34,17.61h0Z"/><path class="cls-1" d="M84.66,17.88c-.54-.11-.47-.18-.36-.27l-1.25.09Z"/><path class="cls-1" d="M84.83,28.45l.39-.19c.64.23.42.4,1,.22-1.35,0-.13-.75-1.49-.78l.28-.12s.07,0,.06.08c.65-.25-1-.19-.79-.5a.41.41,0,0,1,.46-.11l-.33-.25c0-.07.26-.05.23,0l-.11-.38h0a5.37,5.37,0,0,1-.68-.23c.2-.09.14.05.31,0l-.33-.2c.36-.09.7.08.65.23,1.35-.2-.34-.17.45-.59l.17.19c.77-.12.49-.28,1-.5-.25.05-1.21.45-1.55.22.11-.06.15-.15-.12-.27.48,0,.37-.12.34-.27h.64c-.19-.16-.51-.14-.8-.24.06-.18.56-.21,1-.26.1-.28-.8.2-.92-.14.25-.24,0-.4-.4-.69.22-.17.39,0,.58,0l-.51-.15s.16,0,.24,0c-.19-.12-.64,0-.81-.2-.7-.05,1-.4.23-.65.18-.06.39,0,.64,0a3.69,3.69,0,0,0-1.09-.55l.42-.24a2.18,2.18,0,0,1-1.51-.23l-.54.14-.34-.3a1.42,1.42,0,0,1,.59,0L82,21.49a1.66,1.66,0,0,1,1,0l-.39.11a4.93,4.93,0,0,0,1.19.13.35.35,0,0,1-.17-.1.84.84,0,0,0,.26,0c.07,0-.07,0-.24-.09l.72-.07H84l.45-.4c-.72-.29-1.77-.54-2.07-1a7.16,7.16,0,0,0,1.48,0c-.66.12.27.35.14.59.07-.13.36-.1.47-.07l-.6-.42c.51,0,.38-.09.59-.2-1,.09-.67-.31-1-.48.33,0,.68,0,.6.24.75-.23-1.18-.3-.54-.52,0,0,0,.08.13.1-.3-.12-.07-.41.23-.35v.06A.82.82,0,0,0,83.1,18c.11,0,1,0,1.2.06l-2.86-.6c.73.05,2.47-.15,2.88.13.1-.08.23-.18,0-.35a3.12,3.12,0,0,1-1.13.06,5.3,5.3,0,0,0,1.13-.39c-.15.08-1.3,0-1.26-.14s1.13,0,1.25,0l-1.13-.32a3.49,3.49,0,0,0,1.27-.06c-.22,0,0-.28-.09-.36l-.26.14c.17-.37-1.58-.36-1.52-.73.23,0,1.43.11,1.57-.07a14.18,14.18,0,0,1-3.21-.7l.33-.06-.38-.24c.87.15,2.69.58,3.4.81.26-.13.39,0,.36-.24a.42.42,0,0,1,.49.17l.2-.47c-.68,0-.68-.37-1.24-.35l.7.52c-.67,0-1.91-.3-1.79-.64a9.41,9.41,0,0,1,1.42.06c-.23,0-.44-.32-.28-.35l.36.14c.25-.19-.89-.31-.25-.53,0-.08.87-.23.47-.25a22.36,22.36,0,0,1-3.72.07,6.21,6.21,0,0,1,1.11-.5c.61-.13,1.44.2,2,.09a1.8,1.8,0,0,1-.48-.11c.16-.08.57,0,.49-.14-.68,0,.06-.36-.58-.09-.19-.17.14-.18.11-.39a3.5,3.5,0,0,1-1.69-.35,2.27,2.27,0,0,0,.5,0c.06-.36.37-.55.38-.88a1.22,1.22,0,0,1,.66-.12c-.12-.05-.36-.09-.37-.2.59-.2.09.23.8.08-.4,0-.55-.26-.8-.41-.61,0-.11.34.13.48a3.53,3.53,0,0,1-2.11-.6c-.21-.27.54-.12.42-.17.15-.51-1.47-.44-.86-.87a5.16,5.16,0,0,1,1.45,0c.21.22-.34.34-.32.49L82,9.39c.18.07.31.22.16.3.48-.14.09-.88.54-1.28a.92.92,0,0,0-.59-.13l.08.13c-.44.11-.6-.24-.8-.08-.31-.17-.79-.36-.54-.6l.61-.05c-.18,0-.37.16-.18.23-.27-.1.83-.37,0-.48l-.43.17c-.3-.17-1-.38-.76-.59-.61.09.07,0-.64.2.88-.13,0,.54.89.33-.82.15-.35.26-1.05.47.2,0,.39-.07.29.1l.17,0h0a1,1,0,0,1,.31-.09c.46.09.45.37.69.47-.1.1-.23,0-.45,0l.36.14c-.45,0-.75.28-1,0l0,.23c-.25.13-.35.31-.16.42-.1.11.49.27.14.18l.28.35h-.11c-.06.35.74.71-.07,1.11.12.12.25.24.13.43l-.39,0c.13.15-.39.45,0,.51-1,.16-.22.73-.41,1h.51c0,.18.11.36.32.58h.45c.36.19-.32.5-.28.8-.17,0-.12-.1,0-.15-1,.36.74.77,0,1.1.16.09.11.15,0,.2l0,0s0,0,0,0l-.23.11.24-.09a.41.41,0,0,0,.17.25l-.48,0,0,0c-.18.1.22.08.59,0a.87.87,0,0,0,.29.12c-.78.08.26.25-.57.36.4.06.3.47,1.15.52-.11,0-.16,0-.17,0-.09.11-.19.22,0,.31l-.61,0,.82.23a1.41,1.41,0,0,1-1.06.06c.72.33.27.27,1,.55h-.4c0,.1.55.27.22.33-.75.23-.1,1.13-.8,1.72,1.16-.12-.52.27.38.29-.28,0-.43.12-.67,0,.27.3-.44.45.32.66-.27,0-.4-.06-.56,0,.06,0,.24.09.07.12s-.23,0-.35-.09c0,.31.9.34,1.69.36-.37.16-.32.24.2.35-.26,0-.53.14-.63-.05,0,.11-.38.66.26.67-.16,0,0,.15,0,.17,0,.24-.1.27,0,.5L81.1,23c.77.09.17.19.26.38h-.08c-.55.43.27.18-.37.61l.48,0c1,0-.6.38-.21.63l.27-.09c.36.14-1.4.38-1.53.52s-.14-.05-.21-.09c-.61.36.63.05.78.31-.34,0-.87-.06-.93.12-.27.09,1.1.52.45.77a1,1,0,0,1,.72,0c.09.19-1,.52-.16.69a.82.82,0,0,1-.21,0c.21.15.35.48.8.56-1.66.14.81.91-.72.9l.08.45h-.16c-.1.29.27.39.64.49-.11.06-.25,0-.33,0-.31.42-.24.46.52.81l-.5,0c.29.1-.78.61-.2,1a.68.68,0,0,1-.22-.05c.58.46-1.38,1.11.43,1.28l.44.3c.15-.39.79.06,1.09-.1.1.15-.55.4-.64.21l.09,0c-.94-.07-.33.48-1,.47,0,.78-.48,1.53-.52,2.26l.73-.09,0,.26c-.17.06-.57.09-.54-.09-.41.09.35.3.51.3-.3.36-.86-.13-.87,0L80,36l.09,0c.29.12.61.13.58.34s-.46.08-.48.13-.08,0,0,.08l-.06.32.58-.13c.28.14,0,.3.62.16-1,.21-.36,1.18-.67,1.32.42.2.41.39.36.63.12-.06.77-.09.69.11-1.34-.07-.58.39-1.54.56.64-.16.15.59,1.06.35-.11.18-.5,0-.82.14.52.42-.33.92-.16,1.43a1.75,1.75,0,0,1,.71,0l-.88.27c.09.1,1,.1.4.28.15,0,.38-.06.43,0C80.05,43,81.61,44,80,45c.34-.14.38,0,.39.06.08-.07.44,0,.67,0l-.66.43c.66.07,0,.45.68.5L81,45.88c.75.18,1.66-.25,2.62-.22-.85-.2,1.26-.53,0-.86.2-.08.31.06.53,0-.41-.08-.49-.18-.31-.37l.1,0c-.1-.53.31-.75.58-1.34l-.48,0c.07-.13.22-.15.34-.21-.72-.15,0,.36-.84.22,1-.17,0-.89,1.11-1,0-.19-.55.06-.54-.13l.3-.06-.38,0c.06-.12.43-.19.68-.19,0,0,.07.08.09.12.35-.17-.12-.47,0-.53l-.19.19c-.27-.53.12-1.18-.49-1.7l-.22,0c-.41-.39.24-.31,0-.75l.06,0c-.23-.09-.34-.2-.31-.32.26.11.51-.21.8-.06-.45-.43-.35-.21-1.18-.5l.37-.06c-.34-.1-.52-.1-.61-.32.32.18.56-.14,1,.06.82-.45-.81-.67.37-.88-1-.21-.57.39-.79.28-.33.09-.77-.18-.66-.32s1.31-.24,1.29-.61c0,0,.07,0,.07.08.26-.14-.35-.27.07-.44-.62-.09,0-.21-.76-.24l.19.33c-.21-.19-1.14-.36-.69-.67a1.51,1.51,0,0,1,.49.18c.23-.09-.15-.18.09-.27.79,0,.17.4.77.6.34-.09-.57-.38.29-.28-1.09-.14.13-.35-.7-.6l.48,0c-.08,0-.3-.12-.29-.2l.61.13c-.52-.2.46-.38.18-.57,0,.4-.57.09-.92.26-.64-.5,1.24-.29,1-.84.07.07-.28.28-.5.16a1.14,1.14,0,0,1,.53-.3c-.1-.37-.49,0-.78-.1.58-.13-.24-.18-.42-.35h.48c.31-.41-1-.11-.63-.48l.67.16-.18-.2.55,0c-.4-.21-.3-.28-.15-.49-.34.05-.87,0-.89-.21.29-.13.46.07.39-.19.31.06.68.12.24.24.16,0,.3.06.46.07.33-.14.07-.34.07-.44a.18.18,0,0,1-.11.1l-.67-.38a.68.68,0,0,1,.47,0c-.06-.08-.28-.13-.32-.25a2,2,0,0,1,1,.19l-.43-.36c.17,0,.47-.19.61-.14.23-.2-.76-.5-.46-.76a.42.42,0,0,1-.2-.1c.09-.25.57-.47,0-.77l.7-.17c-.16-.23-.88.23-1.15-.16s.6-.1.8-.19c-.36-.14-1.08-.38-.5-.63C84.88,28.31,84.77,28.37,84.83,28.45Zm-.32-2.86c.11.05.42.16.13.2C84.09,25.73,84.36,25.68,84.51,25.59Zm-1.16-4.36c.16.05.08.11-.1.18S83.23,21.3,83.35,21.23ZM80,9.11h0C79.83,9.24,79.9,9.2,80,9.11Zm.21-.26a.44.44,0,0,0-.2,0c.12,0,.13.08.1.14C80.22,9,80.31,8.93,80.2,8.85Zm.19,27.6.13-.05C80.66,36.51,80.53,36.48,80.39,36.45Z"/><path class="cls-1" d="M84,21.73l-.26,0A.39.39,0,0,0,84,21.73Z"/><path class="cls-1" d="M85.08,30.23h.08Z"/><path class="cls-1" d="M84.29,12.83a.52.52,0,0,1-.25.11C84.16,12.94,84.26,12.91,84.29,12.83Z"/><path class="cls-1" d="M79.38,7.49l.13.17c0-.08.08-.11.16-.15C79.55,7.51,79.39,7.54,79.38,7.49Z"/><path class="cls-1" d="M82.37,6.06c-.06,0,0,0-.07-.07h-.22A.17.17,0,0,0,82.37,6.06Z"/><path class="cls-1" d="M81,7.34c.4,0,.26-.12.19-.23v0C80.61,7.09,80.8,7.22,81,7.34Z"/><path class="cls-1" d="M81.17,7.08a.11.11,0,0,1,0-.11C80.93,7,81.11,7,81.17,7.08Z"/><path class="cls-1" d="M79.93,8.53c.11-.06-.51,0-.35-.07C79.06,8.4,80.21,8.83,79.93,8.53Z"/><polygon class="cls-1" points="82.32 7.25 81.82 7.29 82.23 7.35 82.32 7.25"/><path class="cls-1" d="M82,8.16,82.09,8a.22.22,0,0,1-.17,0C81.91,8,81.81,8.16,82,8.16Z"/><path class="cls-1" d="M81.92,7.92a.12.12,0,0,0-.08-.15A.22.22,0,0,0,81.92,7.92Z"/><polygon class="cls-1" points="82.47 7.5 82.37 7.55 82.33 7.68 82.47 7.5"/><path class="cls-1" d="M81.86,10.14l.14.2c.17,0,.28,0,.21-.11S82,10.11,81.86,10.14Z"/><path class="cls-1" d="M83.23,9.53a1.41,1.41,0,0,1-.38.09h.62Z"/><path class="cls-1" d="M83.38,10.12c.17,0,.49.29.45,0C83.66,10.13,83.52,9.93,83.38,10.12Z"/><polygon class="cls-1" points="82.59 13.14 82.58 13.09 81.56 13.1 82.59 13.14"/><path class="cls-1" d="M85,15.82c.24-.24-.63-.06-.33-.28-.24,0-.25.18-.45.12C84.5,15.81,84.36,15.88,85,15.82Z"/><path class="cls-1" d="M84.25,15.66a.84.84,0,0,0-.16-.07A.52.52,0,0,0,84.25,15.66Z"/><polygon class="cls-1" points="79.88 45.8 79.66 45.95 80.01 45.86 79.88 45.8"/><path class="cls-1" d="M80.63,46.1l-.65,0,.59.09S80.49,46.12,80.63,46.1Z"/><path class="cls-1" d="M85.82,25.16h-.15c-.17,0-.19.06-.21.13Z"/><polygon class="cls-1" points="85.34 27.24 85.35 27.2 84.76 27.27 85.34 27.24"/><path class="cls-1" d="M86.08,29c0-.07-.1-.15-.08-.22C86.11,28.91,85.35,29,86.08,29Z"/><path class="cls-1" d="M55.75,4.43c0-.08-.38.07-.46.08C55.41,4.59,55.85,4.39,55.75,4.43Z"/><polygon class="cls-1" points="56.99 5.22 56.82 5.26 57.27 5.29 56.99 5.22"/><path class="cls-1" d="M57.29,6.23c.65-.3-.22-.33,0-.58l.15-.08-.57.09C57,5.85,57.43,6,57.29,6.23Z"/><path class="cls-1" d="M56,7.23c.26-.12.26,0,0-.15l-.06,0A.23.23,0,0,1,56,7.23Z"/><path class="cls-1" d="M56,7.12c-.05-.1-.2.14,0,0Z"/><path class="cls-1" d="M56.27,7.56,56,7.49c-.15.08-.15.22-.28.21C55.89,7.8,56,7.72,56.27,7.56Z"/><path class="cls-1" d="M56.81,7.54l-.13,0C56.62,7.53,56.6,7.56,56.81,7.54Z"/><path class="cls-1" d="M56.42,7.41l.26.09c.11-.06.33-.13-.1,0C56.79,7.4,56.59,7.43,56.42,7.41Z"/><path class="cls-1" d="M56.5,7.29c.13-.12.19-.25.47-.19C56.79,6.87,56.32,7.05,56.5,7.29Z"/><path class="cls-1" d="M58,6.07l.17-.17-.26,0C58.05,5.89,57.8,6.14,58,6.07Z"/><path class="cls-1" d="M56.18,8.54c.15,0,.37-.17.56-.23l-.2-.06A.69.69,0,0,1,56.18,8.54Z"/><path class="cls-1" d="M56.74,8.31l.29.07C57,8.24,56.89,8.25,56.74,8.31Z"/><polygon class="cls-1" points="57.57 7.33 56.97 7.24 57.59 7.38 57.57 7.33"/><polygon class="cls-1" points="56.35 9.13 55.98 9.15 56.54 9.15 56.35 9.13"/><path class="cls-1" d="M56.53,9.51c-.3,0-.45.23-.64.22.08.09.35.1.59.12C56.33,9.8,56.33,9.7,56.53,9.51Z"/><path class="cls-1" d="M56.83,9.89a2.43,2.43,0,0,0-.35,0A1,1,0,0,0,56.83,9.89Z"/><path class="cls-1" d="M57,8.67a.93.93,0,0,0-.37.25l.39-.19S57.05,8.69,57,8.67Z"/><path class="cls-1" d="M57.07,8.72h0a1,1,0,0,1,0,.14Z"/><path class="cls-1" d="M57,8.65v0S57.09,8.64,57,8.65Z"/><path class="cls-1" d="M57.33,7.85c.25,0,.56.13.85-.16C57.88,7.71,57.71,7.88,57.33,7.85Z"/><path class="cls-1" d="M57.53,8.42l0-.19a1.18,1.18,0,0,1-.38.1Z"/><polygon class="cls-1" points="57.68 8.46 57.53 8.42 57.51 8.49 57.68 8.46"/><path class="cls-1" d="M57.13,9.49a.31.31,0,0,1,.29.17.47.47,0,0,0,0-.32C57.33,9.36,57.08,9.4,57.13,9.49Z"/><path class="cls-1" d="M57.14,9.11h0S57.2,9.08,57.14,9.11Z"/><path class="cls-1" d="M57.69,10.52l.07,0-.08,0Z"/><path class="cls-1" d="M57.53,9.3c.06-.1-.06-.11-.19-.11a.35.35,0,0,1,.12.15C57.52,9.33,57.56,9.32,57.53,9.3Z"/><path class="cls-1" d="M57.1,10.07l.19-.19C57.17,10,57,10.09,57.1,10.07Z"/><path class="cls-1" d="M57.06,9.17h0C57,9.22,57,9.2,57.06,9.17Z"/><path class="cls-1" d="M57.06,9.17a1.19,1.19,0,0,0,.28,0,.48.48,0,0,0-.18-.07A.46.46,0,0,1,57.06,9.17Z"/><path class="cls-1" d="M60.39,10c-.38.11-.79,0-.43-.26a6.1,6.1,0,0,0-2.2.77.9.9,0,0,1,.59,0c.19-.12.37-.5.76-.47s-.08.21-.25.38c.44-.23.77.06,1.45-.2l-.3-.11C60.11,10,60.31,10.06,60.39,10Z"/><path class="cls-1" d="M57.7,10.16l-.07-.05c0,.1-.17.2-.44.39a1,1,0,0,0,.49,0l0-.34Z"/><path class="cls-1" d="M57.54,9.81c.43-.07.65,0,1.07-.2-.09-.19-.39,0-.6-.09.19.28-.26,0-.43.28a.45.45,0,0,1-.16-.14,1,1,0,0,1-.13.22l0,0h0s.08,0,.06,0h0l.16,0c-.06.12-.11,0-.16,0h-.07l.32.25C57.67,10,57.63,10,57.54,9.81Z"/><path class="cls-1" d="M59.11,7.59l-.09,0C59.08,7.63,59.12,7.63,59.11,7.59Z"/><path class="cls-1" d="M58.91,7.8c-.07,0-.24,0-.22-.07s.2-.06.33-.1a.49.49,0,0,0-.5.13h.06a1.91,1.91,0,0,1-.62.49A9.21,9.21,0,0,0,58.91,7.8Z"/><path class="cls-1" d="M58.33,8.78l.28.2.32-.24-.21.07C58.75,8.63,58.5,8.75,58.33,8.78Z"/><polygon class="cls-1" points="57.49 10.61 57.05 10.71 57.71 10.68 57.49 10.61"/><polygon class="cls-1" points="57.65 10.94 57.27 11.04 57.52 11.06 57.65 10.94"/><path class="cls-1" d="M68.3,28.8l.13.05A.43.43,0,0,0,68.3,28.8Z"/><path class="cls-1" d="M68.15,28.23l-.19.05C68.07,28.27,68.15,28.26,68.15,28.23Z"/><path class="cls-1" d="M60.28,19.33c-.32.22-.82.52-.4.37l.4-.16C60.18,19.48,60.21,19.41,60.28,19.33Z"/><path class="cls-1" d="M64.53,24.32l.12-.07-.42.05Z"/><path class="cls-1" d="M66.27,23.87l-.22.23A.69.69,0,0,0,66.27,23.87Z"/><path class="cls-1" d="M69.68,31.72l.45,0C70.08,31.54,69.89,31.67,69.68,31.72Z"/><path class="cls-1" d="M58.88,14.4a.5.5,0,0,0-.17.32C58.91,14.53,59.24,14.32,58.88,14.4Z"/><path class="cls-1" d="M63.83,29.94a.5.5,0,0,0,.27,0A.36.36,0,0,0,63.83,29.94Z"/><path class="cls-1" d="M58.79,15l.09-.08c-.09-.05-.17-.11-.17-.2C58.56,14.86,58.48,15,58.79,15Z"/><path class="cls-1" d="M72.76,42.92l0,0S72.77,42.94,72.76,42.92Z"/><path class="cls-1" d="M69.57,47.45a.4.4,0,0,1-.07-.13S69.49,47.4,69.57,47.45Z"/><path class="cls-1" d="M57.89,12.37c0-.06,0,0,0,0Z"/><path class="cls-1" d="M59.42,11.51a.61.61,0,0,0,.21,0A.45.45,0,0,1,59.42,11.51Z"/><path class="cls-1" d="M61.6,14.92h0C61.67,14.88,61.66,14.89,61.6,14.92Z"/><path class="cls-1" d="M58.05,12.21a.31.31,0,0,0-.1.13Z"/><path class="cls-1" d="M57.86,12.28s0,0,0-.08S57.76,12.24,57.86,12.28Z"/><path class="cls-1" d="M58,12.47a.15.15,0,0,1,0-.13l-.06,0A.64.64,0,0,1,58,12.47Z"/><path class="cls-1" d="M69.81,37.32l0,0C70,37.37,69.94,37.35,69.81,37.32Z"/><path class="cls-1" d="M65.17,19.89h0Z"/><path class="cls-1" d="M65.56,20.06c-.55,0-.51,0-.42-.16L64,20.36Z"/><path class="cls-1" d="M68.83,30.11l.32-.3c.68,0,.51.25,1-.08-1.31.38-.36-.67-1.66-.3l.23-.2s.08,0,.08.06c.55-.43-1,.11-.9-.25a.43.43,0,0,1,.41-.24l-.4-.13c0-.08.24-.13.23-.06l-.21-.32h0a5.24,5.24,0,0,1-.72,0c.16-.14.15,0,.3-.07l-.37-.1c.31-.18.69-.12.68,0,1.24-.58-.38-.06.26-.69l.22.13c.7-.34.39-.41.78-.76-.22.12-1,.78-1.42.66.08-.09.11-.18-.19-.22.46-.14.31-.22.24-.35l.62-.18c-.23-.1-.54,0-.84,0,0-.19.47-.37.86-.53,0-.31-.7.42-.92.13.17-.3-.13-.38-.58-.54.16-.22.38-.09.54-.2h-.53s.15-.07.23-.09c-.23-.06-.62.18-.84,0-.69.16.87-.68,0-.68.15-.11.38-.09.61-.18a3.69,3.69,0,0,0-1.2-.21l.33-.35a2.19,2.19,0,0,1-1.52.22l-.46.3-.42-.19a1.45,1.45,0,0,1,.58-.13h-.16A1.62,1.62,0,0,1,65,24l-.34.22A5.14,5.14,0,0,0,65.83,24a.31.31,0,0,1-.2,0,.77.77,0,0,0,.26-.06c.06,0-.08,0-.25,0l.66-.27L66,23.7l.31-.52c-.77-.06-1.85,0-2.27-.33a6.57,6.57,0,0,0,1.42-.41c-.59.31.37.26.31.52,0-.14.32-.2.43-.2l-.69-.22c.48-.14.33-.2.5-.37-.93.38-.73-.1-1.07-.17.32-.11.66-.17.64.05.65-.44-1.21.06-.67-.34,0,.05,0,.09.16.06-.32,0-.18-.38.12-.4l0,.05a.83.83,0,0,0-1.13-.78c.11,0,1-.26,1.17-.29l-2.91.27c.71-.17,2.31-.88,2.79-.73.07-.11.16-.24-.14-.33A2.93,2.93,0,0,1,64,20a5.09,5.09,0,0,0,1-.71c-.12.13-1.25.38-1.25.24.17,0,1.08-.34,1.21-.33l-1.17,0a3.45,3.45,0,0,0,1.19-.43c-.2.1-.06-.27-.19-.32l-.21.21c.06-.4-1.62.12-1.67-.24.24,0,1.4-.32,1.48-.54a14.2,14.2,0,0,1-3.27.29l.29-.16-.43-.12a33.52,33.52,0,0,1,3.49-.22c.21-.21.36-.16.27-.34a.42.42,0,0,1,.52,0l0-.51c-.64.21-.75-.15-1.28,0l.81.29c-.63.21-1.91.27-1.89-.08a9.33,9.33,0,0,1,1.37-.37c-.23,0-.51-.17-.37-.25l.39,0c.18-.25-.94,0-.4-.43,0-.09.76-.48.38-.38a22.3,22.3,0,0,1-3.53,1.16,6.6,6.6,0,0,1,.91-.8c.54-.3,1.43-.24,1.89-.5a2,2,0,0,1-.49.05c.12-.13.55-.14.42-.29-.66.18,0-.36-.57.09-.24-.1.07-.21,0-.4a3.58,3.58,0,0,1-1.73.16,2.13,2.13,0,0,0,.47-.2c-.05-.35.19-.63.1-.95.15-.07.29-.29.59-.31-.13,0-.36,0-.41-.08.51-.36.16.2.79-.16-.38.11-.6-.09-.88-.16-.57.23,0,.36.27.43a3.61,3.61,0,0,1-2.2.05c-.29-.2.48-.28.35-.29,0-.54-1.54,0-1.08-.58a5.5,5.5,0,0,1,1.38-.47c.26.16-.23.43-.16.57l.19-.25c.19,0,.36.12.24.24.42-.28-.17-.86.14-1.38a1,1,0,0,0-.6,0l.11.1c-.38.24-.64-.05-.79.16-.34-.07-.85-.11-.69-.41l.57-.22c-.17.06-.3.25-.1.26-.29,0,.68-.59-.12-.46l-.35.29c-.35-.08-1-.08-.91-.34-.55.27.08,0-.55.37.8-.38.12.53.95.06-.74.39-.26.36-.87.76.19-.07.35-.18.31,0h.18v0l0,0s0,0,0,0a1.24,1.24,0,0,1,.27-.17c.47-.06.54.22.8.24-.06.13-.24,0-.43.14l.39,0c-.43.15-.63.49-1,.33l0,.22c-.2.2-.24.4,0,.45-.06.13.55.11.19.13l.37.25-.11,0c0,.34.92.46.27,1.08.14.07.31.15.24.37l-.36.15c.18.11-.24.55.17.49-1,.46,0,.76-.1,1.07l.48-.14c0,.18.22.3.48.46l.42-.15c.41.08-.15.57,0,.85-.17,0-.15-.06-.07-.14-.86.65.93.52.33,1.06.18,0,.14.1,0,.19h0a0,0,0,0,0,0,0l-.2.18a1,1,0,0,0,.2-.16.49.49,0,0,0,.25.19l-.45.18,0,0c-.14.14.24,0,.57-.15a1.51,1.51,0,0,0,.32,0c-.72.3.32.16-.44.5.4-.05.43.37,1.26.17-.11,0-.15.08-.17,0-.06.13-.12.26.13.28l-.57.22.86,0a1.43,1.43,0,0,1-1,.37c.79.11.34.18,1.11.24l-.38.1c0,.1.6.1.3.25-.65.44.24,1.12-.26,1.88,1.08-.45-.42.42.45.17-.25.12-.37.24-.63.22.35.21-.29.56.5.53-.25.12-.4.06-.55.14.06,0,.26,0,.11.1s-.23,0-.36,0c.13.28,1,.06,1.72-.15-.31.26-.24.32.29.27-.23.13-.47.29-.61.14,0,.11-.17.74.44.56-.14.08,0,.16.08.16,0,.24,0,.28.11.49l.08-.1c.77-.13.22.14.37.29l-.08,0c-.4.58.31.1-.17.7l.45-.16c1-.27-.47.54,0,.66l.24-.16c.38,0-1.23.77-1.31.94s-.15,0-.23,0c-.47.52.61-.14.83.07-.31.15-.84.2-.85.39-.23.16,1.21.17.66.6a1,1,0,0,1,.69-.2c.15.15-.79.78.05.7a.58.58,0,0,1-.19.1c.25.07.48.34.93.3-1.54.61,1,.62-.42,1.07l.21.4-.16,0c0,.3.37.29.75.28a.48.48,0,0,1-.31.1c-.17.49-.1.51.73.62l-.46.19c.31,0-.56.8.11,1a.79.79,0,0,1-.23,0c.7.27-1,1.46.79,1.09l.52.16c0-.41.76-.17,1-.42.15.12-.4.55-.55.39l.08,0c-.92.21-.17.56-.79.74.27.73,0,1.6.17,2.31l.68-.3,0,.26c-.14.11-.52.25-.54.07-.37.21.42.19.57.14-.18.43-.85.12-.84.23l.1.13.07-.06c.32,0,.62-.06.65.16s-.41.2-.42.26-.06,0,0,.08l0,.33.52-.29c.31,0,0,.29.64,0-.9.5,0,1.24-.26,1.46.46.06.51.25.53.5.1-.09.71-.32.7-.1-1.31.33-.45.54-1.32,1,.57-.33.33.52,1.13,0-.06.2-.48.16-.74.38.62.24-.06,1,.26,1.41a1.58,1.58,0,0,1,.69-.18l-.76.52c.11.07,1-.21.47.14.13-.06.33-.17.4-.12-.52,1.21,1.28,1.75,0,3.2.29-.23.35-.15.39-.06.06-.09.41-.12.64-.21l-.51.61c.66-.12.18.42.8.28l-.15-.1c.76,0,1.51-.73,2.43-1-.87.06,1.05-.87-.21-.83.16-.13.31,0,.51-.13-.41,0-.53,0-.41-.27h.11c-.25-.47.07-.8.15-1.45l-.44.18c0-.14.16-.21.25-.3-.72.07.07.35-.72.46.87-.44-.25-.86.76-1.29,0-.19-.51.22-.56,0l.27-.14-.38.07c0-.15.36-.32.59-.39,0,0,.1.06.13.08.28-.26-.25-.41-.16-.5l-.12.24c-.42-.43-.24-1.17-1-1.48l-.2.1c-.51-.25.14-.37-.17-.73h0c-.23,0-.38-.09-.39-.21.29,0,.43-.35.75-.3-.55-.27-.4-.1-1.27-.12l.33-.17c-.35,0-.52,0-.67-.13.35.08.5-.3,1-.23.64-.67-1-.4.09-1-1,.1-.43.54-.68.5-.29.19-.78.06-.72-.11s1.18-.62,1-1c0,0,.08,0,.09.05.21-.21-.42-.15-.06-.44-.62.1,0-.21-.79,0l.27.27c-.25-.12-1.19,0-.85-.45a2.09,2.09,0,0,1,.51,0c.2-.15-.19-.12,0-.28.76-.21.28.34.92.35.29-.19-.66-.2.19-.35-1.09.18,0-.38-.85-.37l.46-.13c-.08,0-.32,0-.33-.1l.63,0c-.56,0,.32-.51,0-.61.14.38-.52.26-.8.52-.75-.28,1.11-.63.72-1.1.09.06-.18.36-.43.31a1.12,1.12,0,0,1,.41-.45c-.2-.32-.45.2-.77.13.52-.29-.28-.1-.5-.2l.46-.14c.17-.49-1,.19-.75-.28l.69,0-.22-.13.53-.12c-.45-.09-.37-.18-.28-.43-.31.15-.85.23-.92.06.24-.2.46-.07.32-.3.3,0,.69-.08.29.16.16,0,.31,0,.46-.07.28-.22,0-.34-.06-.43a.16.16,0,0,1-.08.13l-.75-.17a.66.66,0,0,1,.46-.1c-.07-.06-.3,0-.37-.14a2,2,0,0,1,1-.12l-.52-.22c.15-.07.39-.31.54-.31.16-.26-.87-.24-.66-.59a.34.34,0,0,1-.22,0c0-.27.4-.62-.2-.75l.63-.36c-.23-.18-.78.48-1.15.18s.54-.27.7-.42c-.38,0-1.14,0-.66-.45C68.84,30,68.76,30.05,68.83,30.11Zm-1.14-2.65c.11,0,.44,0,.18.16C67.33,27.72,67.56,27.6,67.69,27.46ZM65.3,23.65c.16,0,.1.07,0,.19C65.2,23.81,65.2,23.74,65.3,23.65Zm-6.79-10.6h0C58.39,13.22,58.45,13.16,58.51,13.05Zm.13-.3a.34.34,0,0,0-.2,0c.12,0,.15,0,.13.11S58.76,12.79,58.64,12.75ZM67,39.05l.11-.08C67.22,39,67.09,39,67,39.05Z"/><path class="cls-1" d="M66.07,23.92a1.73,1.73,0,0,1-.24.1A.34.34,0,0,0,66.07,23.92Z"/><path class="cls-1" d="M69.6,31.73h0l.09,0Z"/><path class="cls-1" d="M63.72,15.34a.58.58,0,0,1-.21.17C63.62,15.48,63.71,15.43,63.72,15.34Z"/><path class="cls-1" d="M57.45,11.69l.17.12c0-.07.05-.13.11-.19C57.62,11.65,57.48,11.73,57.45,11.69Z"/><path class="cls-1" d="M59.88,9.44c-.06,0,0,0-.08,0l-.21.07A.17.17,0,0,0,59.88,9.44Z"/><path class="cls-1" d="M58.94,11.07c.38-.13.22-.19.12-.28v0C58.51,10.94,58.72,11,58.94,11.07Z"/><path class="cls-1" d="M59,10.77s-.05-.06,0-.1C58.77,10.72,59,10.72,59,10.77Z"/><path class="cls-1" d="M58.28,12.51c.09-.08-.5.12-.35,0C57.42,12.65,58.63,12.72,58.28,12.51Z"/><polygon class="cls-1" points="60.19 10.58 59.72 10.77 60.13 10.71 60.19 10.58"/><path class="cls-1" d="M60.11,11.56l.07-.21a.24.24,0,0,1-.17,0C60,11.46,60,11.61,60.11,11.56Z"/><path class="cls-1" d="M60,11.35a.13.13,0,0,0-.13-.12A.26.26,0,0,0,60,11.35Z"/><polygon class="cls-1" points="60.41 10.78 60.32 10.86 60.33 11 60.41 10.78"/><path class="cls-1" d="M60.6,13.48l.19.15c.17,0,.26-.11.17-.16S60.75,13.4,60.6,13.48Z"/><path class="cls-1" d="M61.73,12.5a1.17,1.17,0,0,1-.34.19l.6-.17Z"/><path class="cls-1" d="M62,13c.17,0,.56.13.45-.1C62.32,13,62.12,12.8,62,13Z"/><polygon class="cls-1" points="62.18 16.14 62.16 16.09 61.19 16.4 62.18 16.14"/><path class="cls-1" d="M65.3,18c.16-.3-.62.14-.39-.16-.25,0-.19.24-.4.25C64.79,18.12,64.68,18.24,65.3,18Z"/><path class="cls-1" d="M64.51,18.06l-.17,0Z"/><polygon class="cls-1" points="69.21 48.14 69.06 48.35 69.35 48.16 69.21 48.14"/><path class="cls-1" d="M70,48.2l-.61.23.59-.09S69.89,48.27,70,48.2Z"/><path class="cls-1" d="M68.81,26.67l-.15,0c-.16.08-.16.11-.16.19Z"/><polygon class="cls-1" points="68.96 28.8 68.96 28.76 68.42 29 68.96 28.8"/><path class="cls-1" d="M70.19,30.24c0-.07-.15-.11-.15-.19C70.19,30.17,69.5,30.48,70.19,30.24Z"/><path class="cls-1" d="M34,15.73c0-.08-.35.18-.41.21C33.69,16,34,15.66,34,15.73Z"/><polygon class="cls-1" points="35.38 16.12 35.22 16.2 35.66 16.1 35.38 16.12"/><path class="cls-1" d="M36,17c.54-.49-.31-.25-.2-.55l.11-.12-.52.25C35.55,16.72,36,16.75,36,17Z"/><path class="cls-1" d="M35,18.33c.21-.19.27,0,0-.16l0,.06A.25.25,0,0,1,35,18.33Z"/><path class="cls-1" d="M35,18.23c-.08-.08-.16.19,0,0Z"/><path class="cls-1" d="M35.38,18.57h-.29c-.12.12-.08.25-.2.28C35.08,18.91,35.2,18.79,35.38,18.57Z"/><path class="cls-1" d="M35.89,18.39h-.13C35.71,18.43,35.7,18.46,35.89,18.39Z"/><path class="cls-1" d="M35.48,18.38h.28c.08-.08.27-.21-.11,0C35.83,18.26,35.64,18.35,35.48,18.38Z"/><path class="cls-1" d="M35.52,18.24c.08-.16.1-.3.39-.32C35.67,17.75,35.28,18.06,35.52,18.24Z"/><path class="cls-1" d="M36.6,16.62l.11-.2-.25,0C36.59,16.44,36.42,16.76,36.6,16.62Z"/><path class="cls-1" d="M35.58,19.53c.14-.08.31-.27.47-.39h-.21A.75.75,0,0,1,35.58,19.53Z"/><path class="cls-1" d="M36.05,19.14h.3C36.3,19,36.18,19,36.05,19.14Z"/><polygon class="cls-1" points="36.55 17.96 35.95 18.05 36.59 18 36.55 17.96"/><polygon class="cls-1" points="35.92 20.05 35.57 20.17 36.1 20 35.92 20.05"/><path class="cls-1" d="M36.2,20.35c-.28.11-.36.35-.55.4a1.12,1.12,0,0,0,.6-.06C36.1,20.69,36.07,20.59,36.2,20.35Z"/><path class="cls-1" d="M36.61,20.62l-.36.07A1,1,0,0,0,36.61,20.62Z"/><path class="cls-1" d="M36.45,19.39c-.07.07-.26.22-.29.35l.32-.29Z"/><path class="cls-1" d="M36.49,19.44h0a.45.45,0,0,1,.05.13S36.51,19.52,36.49,19.44Z"/><path class="cls-1" d="M36.44,19.38h0S36.49,19.36,36.44,19.38Z"/><path class="cls-1" d="M36.47,18.53c.25-.06.58,0,.77-.4C37,18.24,36.85,18.44,36.47,18.53Z"/><path class="cls-1" d="M36.83,19v-.19a1.15,1.15,0,0,1-.34.21Z"/><polygon class="cls-1" points="36.99 19.01 36.84 19.01 36.84 19.09 36.99 19.01"/><path class="cls-1" d="M36.77,20.16a.3.3,0,0,1,.33.07.46.46,0,0,0-.06-.32C36.92,20,36.7,20.08,36.77,20.16Z"/><path class="cls-1" d="M36.66,19.79h0S36.72,19.75,36.66,19.79Z"/><path class="cls-1" d="M37.61,21l0-.06-.06,0Z"/><path class="cls-1" d="M37.1,19.85c0-.1-.09-.08-.22,0a.29.29,0,0,1,.16.1C37.09,19.88,37.13,19.86,37.1,19.85Z"/><path class="cls-1" d="M36.91,20.72a1.34,1.34,0,0,0,.12-.24C36.94,20.59,36.81,20.77,36.91,20.72Z"/><path class="cls-1" d="M36.61,19.87h0C36.52,20,36.56,19.92,36.61,19.87Z"/><path class="cls-1" d="M36.61,19.87a1,1,0,0,0,.27-.06.39.39,0,0,0-.19,0A.6.6,0,0,1,36.61,19.87Z"/><path class="cls-1" d="M40,19.66c-.34.21-.75.25-.49-.12a6,6,0,0,0-1.88,1.38.94.94,0,0,1,.57-.18c.14-.17.2-.59.58-.67s0,.23-.12.43c.35-.35.75-.16,1.32-.61l-.32,0C39.78,19.8,40,19.76,40,19.66Z"/><path class="cls-1" d="M37.51,20.63l-.08,0a1.45,1.45,0,0,1-.3.5A.9.9,0,0,0,37.6,21l-.15-.32Z"/><path class="cls-1" d="M37.26,20.34c.38-.2.63-.16,1-.51-.14-.15-.38.09-.61.09.28.21-.25.06-.31.39a.42.42,0,0,1-.2-.08.86.86,0,0,1-.07.25l0,0h0c0-.05.06-.07,0,0h0l.14-.08c0,.13-.08.08-.14.08l0,0h0l.38.14C37.44,20.51,37.38,20.44,37.26,20.34Z"/><path class="cls-1" d="M38.11,17.75l-.08.07C38.09,17.81,38.12,17.79,38.11,17.75Z"/><path class="cls-1" d="M38,18c-.07,0-.22.1-.23,0s.17-.12.29-.2a.48.48,0,0,0-.44.28l.06,0a1.66,1.66,0,0,1-.45.65A8.65,8.65,0,0,0,38,18Z"/><path class="cls-1" d="M37.71,19.12l.33.11.23-.32-.18.13C38.07,18.86,37.86,19,37.71,19.12Z"/><polygon class="cls-1" points="37.45 21.12 37.05 21.35 37.67 21.12 37.45 21.12"/><polygon class="cls-1" points="37.69 21.39 37.36 21.6 37.61 21.54 37.69 21.39"/><path class="cls-1" d="M53.14,35.32h0Z"/><path class="cls-1" d="M52.83,34.82l-.17.1C52.76,34.88,52.83,34.84,52.83,34.82Z"/><path class="cls-1" d="M42.69,28.63c-.24.3-.64.74-.28.47l.33-.27C42.63,28.8,42.64,28.73,42.69,28.63Z"/><path class="cls-1" d="M48.22,32.15l.09-.11-.39.17Z"/><path class="cls-1" d="M49.75,31.2l-.14.29A.87.87,0,0,0,49.75,31.2Z"/><path class="cls-1" d="M55.32,37.7l.42-.17C55.65,37.41,55.51,37.59,55.32,37.7Z"/><path class="cls-1" d="M39.89,24.33a.53.53,0,0,0-.07.35C40,24.44,40.21,24.15,39.89,24.33Z"/><path class="cls-1" d="M49.2,37.72a.51.51,0,0,0,.26-.09A.38.38,0,0,0,49.2,37.72Z"/><path class="cls-1" d="M40,24.93l0-.11c-.1,0-.19,0-.22-.14C39.72,24.86,39.68,25,40,24.93Z"/><path class="cls-1" d="M61.56,47.5l0,0C61.59,47.52,61.58,47.51,61.56,47.5Z"/><path class="cls-1" d="M59.85,52.76s-.07-.06-.1-.1S59.76,52.73,59.85,52.76Z"/><path class="cls-1" d="M38.35,22.68c-.07,0-.05,0,0,0Z"/><path class="cls-1" d="M39.56,21.41a.62.62,0,0,0,.19-.09Z"/><path class="cls-1" d="M42.64,24h0C42.7,24,42.69,24,42.64,24Z"/><path class="cls-1" d="M38.45,22.48a.3.3,0,0,0-.05.15Z"/><path class="cls-1" d="M38.29,22.61a.17.17,0,0,0,0-.08C38.22,22.56,38.19,22.59,38.29,22.61Z"/><path class="cls-1" d="M38.43,22.76a.14.14,0,0,1,0-.13s0,.05,0,.05Z"/><path class="cls-1" d="M57.1,43l0,0C57.27,43,57.22,43,57.1,43Z"/><path class="cls-1" d="M47.52,27.72h0v0Z"/><path class="cls-1" d="M47.94,27.77c-.51.2-.49.11-.45,0l-1,.78Z"/><path class="cls-1" d="M54,36.41l.21-.38c.66-.17.58.09.93-.37-1.14.75-.54-.53-1.67.21l.16-.27s.08,0,.09,0c.4-.57-.91.4-.93,0a.41.41,0,0,1,.32-.35l-.42,0c0-.07.19-.19.2-.12l-.3-.24,0,0c-.21.07-.55.16-.7.19.11-.19.15,0,.27-.16h-.38c.24-.26.62-.32.66-.17,1-.92-.38.05,0-.74l.25.06c.56-.53.25-.5.52-1-.18.19-.75,1.05-1.16,1.06.05-.11.05-.21-.25-.16.4-.27.23-.3.13-.41l.53-.35c-.24,0-.5.17-.79.25-.05-.18.34-.49.66-.76-.08-.3-.55.61-.84.4.07-.34-.24-.33-.72-.35.09-.26.34-.2.46-.35l-.5.17s.12-.12.19-.16c-.23,0-.53.35-.79.29-.61.35.63-.91-.17-.66.12-.15.34-.2.53-.35a3.69,3.69,0,0,0-1.21.15l.22-.43a2.3,2.3,0,0,1-1.39.66c-.16.18-.3.33-.36.42l-.45-.06a1.42,1.42,0,0,1,.51-.3l-.16,0a1.78,1.78,0,0,1,.81-.52l-.26.31a5.34,5.34,0,0,0,1.06-.56.35.35,0,0,1-.2,0,.7.7,0,0,0,.23-.13c.05,0-.09,0-.25.06L49.7,31l-.24.15.14-.58c-.75.16-1.77.55-2.26.35a7.41,7.41,0,0,0,1.23-.81c-.47.47.43.13.45.4,0-.14.25-.28.35-.31h-.73c.43-.28.27-.29.38-.5-.78.63-.73.12-1.08.15.27-.2.58-.36.63-.14.49-.61-1.14.42-.74-.13,0,0,0,.09.16,0-.31.07-.28-.3,0-.41l0,0a.83.83,0,0,0-1.31-.42c.09-.06.87-.54,1-.62L45,29.25c.64-.37,2-1.52,2.46-1.52,0-.13.08-.28-.22-.27a3.34,3.34,0,0,1-.9.68,5.48,5.48,0,0,0,.71-1c-.08.15-1.08.72-1.12.6.15-.08.93-.65,1.05-.68l-1.11.37a3.91,3.91,0,0,0,1-.76c-.17.15-.14-.25-.28-.25l-.14.26c-.07-.4-1.51.59-1.67.26.22-.1,1.25-.72,1.26-.95a14.37,14.37,0,0,1-3.05,1.24l.24-.24h-.45a33.62,33.62,0,0,1,3.27-1.24c.14-.26.3-.25.16-.4a.41.41,0,0,1,.5-.14l-.1-.5c-.55.39-.77.08-1.22.41l.87,0c-.54.4-1.75.83-1.84.48a8.27,8.27,0,0,1,1.21-.75c-.22.1-.55,0-.43-.13l.38-.09c.1-.29-.91.25-.51-.3,0-.08.59-.68.25-.46a23.35,23.35,0,0,1-3,2.15,5.48,5.48,0,0,1,.64-1c.42-.45,1.29-.65,1.65-1a1.42,1.42,0,0,1-.45.18c.08-.15.49-.29.32-.39-.58.36-.16-.33-.53.26-.26,0,0-.23-.12-.39a3.43,3.43,0,0,1-1.61.66,2.38,2.38,0,0,0,.39-.32c-.15-.33,0-.66-.18-.94.12-.12.19-.36.47-.47-.12,0-.34.12-.41.05.37-.5.2.13.7-.39-.33.21-.6.09-.88.11-.48.38.09.34.38.32a3.53,3.53,0,0,1-2.09.7c-.33-.11.38-.41.26-.38-.18-.51-1.47.47-1.21-.23a5.37,5.37,0,0,1,1.18-.86c.29.07-.09.48,0,.59l.11-.3c.19,0,.38,0,.3.16.32-.39-.42-.77-.27-1.35-.19,0-.42,0-.56.21l.13.07c-.29.34-.63.14-.7.38-.35,0-.85.15-.79-.19l.48-.38c-.14.1-.21.33,0,.28-.28.07.48-.77-.24-.4l-.26.37c-.35,0-1,.23-1-.05-.44.42.09,0-.41.52.65-.6.27.47.92-.23-.59.59-.14.42-.6,1,.16-.12.28-.27.29-.07l.17-.07v0s0,0,0,0a.92.92,0,0,1,.2-.25c.43-.19.58.05.83,0,0,.14-.21.09-.36.26l.38-.08c-.37.26-.46.65-.82.59l.11.2c-.13.25-.11.45.11.44,0,.14.56-.06.21.06l.43.14-.09.06c.15.32,1,.17.57.95.16,0,.34.06.35.29l-.3.25c.19.05-.07.59.3.42-.77.72.22.73.21,1l.43-.28c.08.17.29.23.59.3l.36-.27c.41,0,0,.6.23.82-.15.08-.16,0-.11-.11-.63.87,1,.22.63.91.18,0,.16.06.1.17s0,0,0,0l0,0a1,1,0,0,0-.13.23,1.07,1.07,0,0,0,.14-.22.42.42,0,0,0,.29.11l-.38.31h0c-.1.18.23-.07.5-.31a1.3,1.3,0,0,0,.31-.06c-.6.5.36.06-.27.61.37-.18.52.22,1.25-.22-.09.07-.12.12-.15.08,0,.15,0,.29.21.23l-.48.38.81-.27a1.38,1.38,0,0,1-.84.65c.79-.13.38.07,1.13-.1l-.33.21c.07.08.6-.09.36.15-.49.61.55,1,.31,1.87.89-.75-.28.52.48,0-.21.19-.29.34-.54.4.39.09-.11.62.63.36-.21.18-.37.17-.48.29.06,0,.25-.06.13.06s-.22.1-.34.12c.21.23.93-.22,1.6-.65-.23.34-.14.37.36.17-.19.19-.36.42-.55.32,0,.11.05.75.59.4-.12.12,0,.15.12.13.1.22.07.27.25.43l.05-.11c.69-.36.25.07.44.17l-.07,0c-.21.67.33,0,0,.72l.39-.29c.87-.55-.29.66.18.64l.17-.23c.37-.08-.94,1.11-1,1.29s-.15,0-.23,0c-.3.64.55-.32.82-.18-.25.23-.75.43-.7.62-.18.23,1.2-.19.8.38.19-.19.38-.39.61-.39s-.53,1,.25.66a1,1,0,0,1-.15.14c.26,0,.56.19,1,0-1.29,1,1.18.29-.08,1.15l.31.32-.13.08c.08.3.44.17.8.05,0,.11-.2.15-.27.19,0,.52.06.52.89.38l-.39.31c.29-.08-.3.94.4,1a.53.53,0,0,1-.2.09c.74.05-.52,1.68,1.07.81h.54c-.11-.41.68-.4.83-.7.18.07-.22.64-.41.53l.06-.07c-.81.47,0,.59-.53.94.47.62.47,1.53.84,2.15l.56-.48.11.24c-.11.15-.43.39-.5.23-.29.31.45,0,.59,0-.05.46-.78.37-.74.47l.13.09,0-.07c.32-.07.58-.24.68,0s-.34.31-.33.37-.05.06,0,.08l.13.3.4-.43c.32,0,.15.26.61-.23-.72.75.37,1.19.18,1.47.46-.07.57.1.66.32.06-.11.58-.51.63-.29-1.15.69-.26.64-1,1.32.44-.48.46.4,1.08-.3,0,.2-.41.29-.6.58.67.05.24.94.67,1.26a1.87,1.87,0,0,1,.6-.37l-.57.72c.13,0,.89-.49.49,0,.11-.1.27-.26.36-.23-.15,1.31,1.73,1.29,1,3,.21-.3.29-.25.36-.17,0-.1.36-.24.55-.39L60,53c.59-.31.29.35.84,0l-.17,0c.72-.28,1.23-1.15,2-1.66-.82.31.74-1.15-.45-.74.12-.17.29-.12.45-.28-.39.16-.52.13-.47-.13l.1,0c-.38-.38-.17-.79-.28-1.43l-.37.3c0-.14.09-.25.15-.36-.67.28.17.32-.56.65.7-.68-.49-.75.35-1.46-.11-.16-.42.36-.53.19l.22-.21L61,48c0-.14.25-.41.45-.55,0,0,.11,0,.14,0,.2-.34-.36-.32-.3-.43l0,.26c-.53-.29-.58-1-1.36-1.13l-.17.16c-.56-.1,0-.4-.37-.65l0,0c-.23.06-.39,0-.44-.09.28-.06.31-.45.63-.5-.61-.1-.41,0-1.25.26l.27-.26c-.33.11-.49.2-.69.07.37,0,.39-.43.85-.5.42-.83-1.05-.1-.19-.93-1,.4-.25.64-.5.67-.22.27-.73.29-.72.11s.94-.94.72-1.23c0,0,.08,0,.1,0,.14-.26-.44,0-.18-.39-.57.27-.1-.2-.77.22l.34.17c-.27,0-1.14.34-.94-.17a2,2,0,0,1,.5-.13c.14-.2-.23-.06-.08-.27.67-.42.37.24,1,.07.22-.27-.69,0,.08-.4-1,.5-.09-.37-.92-.1l.4-.26c-.08,0-.31.07-.34,0l.58-.24c-.54.13.16-.58-.18-.58.24.33-.42.4-.61.73-.81,0,.86-.93.36-1.26.1,0-.07.39-.32.42a1.08,1.08,0,0,1,.26-.55c-.29-.25-.37.32-.7.36.41-.43-.29,0-.54,0l.4-.27c0-.52-.89.47-.8,0l.65-.24-.26-.07.48-.27c-.46,0-.41-.06-.4-.32-.25.23-.74.47-.85.32.16-.26.42-.2.21-.38.28-.12.63-.28.33.07.14-.08.28-.12.42-.2.19-.3-.13-.33-.19-.4a.18.18,0,0,1,0,.15l-.77.06a.7.7,0,0,1,.41-.24c-.09,0-.3.05-.4,0,.34-.2.67-.43.91-.4l-.56-.06c.13-.11.28-.41.43-.46.07-.29-.91,0-.81-.37a.34.34,0,0,1-.22,0c-.07-.26.2-.71-.41-.65l.49-.54c-.26-.1-.61.69-1,.52s.44-.42.54-.61c-.37.08-1.1.29-.76-.24C54,36.26,53.94,36.37,54,36.41Zm-1.87-2.19c.11,0,.43-.1.22.09C51.89,34.57,52.08,34.38,52.16,34.22Zm-3.41-2.95c.15-.05.12.05,0,.21C48.7,31.46,48.68,31.4,48.75,31.27Zm-9.61-8.12h0C39.08,23.35,39.12,23.27,39.14,23.15Zm0-.33a.48.48,0,0,0-.17.1c.11-.05.15,0,.16.07C39.25,22.9,39.3,22.82,39.17,22.82Zm15.7,22.69L55,45.4C55.13,45.41,55,45.46,54.87,45.51Z"/><path class="cls-1" d="M49.57,31.31l-.2.17A.36.36,0,0,0,49.57,31.31Z"/><path class="cls-1" d="M55.24,37.73h0l.08,0Z"/><path class="cls-1" d="M44.79,23.8a.57.57,0,0,1-.15.23C44.74,24,44.81,23.89,44.79,23.8Z"/><path class="cls-1" d="M37.73,22.16l.19.06c-.06,0,0-.13,0-.21S37.76,22.2,37.73,22.16Z"/><path class="cls-1" d="M39.39,19.3c-.06,0,0,0-.1,0l-.18.13A.17.17,0,0,0,39.39,19.3Z"/><path class="cls-1" d="M39,21.13c.33-.24.16-.25,0-.3a0,0,0,0,1,0,0C38.52,21.14,38.74,21.13,39,21.13Z"/><path class="cls-1" d="M39,20.81a.08.08,0,0,1-.07-.08C38.7,20.85,38.88,20.79,39,20.81Z"/><path class="cls-1" d="M38.76,22.7c.06-.1-.44.27-.32.15C38,23.09,39.16,22.8,38.76,22.7Z"/><polygon class="cls-1" points="40.02 20.3 39.63 20.61 40 20.44 40.02 20.3"/><path class="cls-1" d="M40.23,21.26V21a.22.22,0,0,1-.17,0C40.12,21.19,40.11,21.34,40.23,21.26Z"/><path class="cls-1" d="M40.07,21.08a.12.12,0,0,0-.15-.07A.21.21,0,0,0,40.07,21.08Z"/><polygon class="cls-1" points="40.28 20.42 40.23 20.52 40.27 20.65 40.28 20.42"/><path class="cls-1" d="M41.26,23l.23.08c.16-.08.21-.18.11-.2S41.38,22.83,41.26,23Z"/><path class="cls-1" d="M42.05,21.67a1.11,1.11,0,0,1-.26.29l.51-.34Z"/><path class="cls-1" d="M42.5,22.08c.16-.09.58,0,.4-.23C42.75,21.93,42.52,21.84,42.5,22.08Z"/><polygon class="cls-1" points="43.56 25.02 43.52 24.98 42.69 25.56 43.56 25.02"/><path class="cls-1" d="M47.08,25.85c.07-.33-.55.31-.42,0-.23.09-.11.29-.31.36C46.64,26.14,46.56,26.29,47.08,25.85Z"/><path class="cls-1" d="M46.35,26.17l-.17,0Z"/><polygon class="cls-1" points="59.72 53.53 59.63 53.78 59.85 53.5 59.72 53.53"/><path class="cls-1" d="M60.51,53.35l-.52.39.54-.25S60.4,53.45,60.51,53.35Z"/><path class="cls-1" d="M53,33.13l-.14.08c-.12.11-.11.15-.09.22Z"/><polygon class="cls-1" points="53.77 35.12 53.76 35.08 53.31 35.47 53.77 35.12"/><path class="cls-1" d="M55.37,36.14c0-.08-.18-.07-.19-.14C55.35,36.06,54.78,36.57,55.37,36.14Z"/><path class="cls-1" d="M16.47,33c0-.07-.27.27-.33.32C16.29,33.27,16.54,32.86,16.47,33Z"/><polygon class="cls-1" points="17.94 32.91 17.82 33.03 18.21 32.8 17.94 32.91"/><path class="cls-1" d="M18.76,33.57c.37-.62-.37-.15-.36-.46l.08-.15-.42.4C18.29,33.43,18.76,33.31,18.76,33.57Z"/><path class="cls-1" d="M18.24,35.13c.15-.24.24-.12,0-.15a.19.19,0,0,0,0,.07A.19.19,0,0,1,18.24,35.13Z"/><path class="cls-1" d="M18.17,35.05c-.1-.06-.09.22,0,0Z"/><path class="cls-1" d="M18.67,35.24l-.27.1c-.08.15,0,.26-.11.32C18.49,35.65,18.56,35.51,18.67,35.24Z"/><path class="cls-1" d="M19.1,34.92,19,35C18.94,35,18.94,35.05,19.1,34.92Z"/><path class="cls-1" d="M18.71,35,19,35c.06-.11.2-.29-.1,0C19,34.81,18.86,35,18.71,35Z"/><path class="cls-1" d="M18.71,34.89c0-.18,0-.32.28-.42C18.71,34.37,18.43,34.79,18.71,34.89Z"/><path class="cls-1" d="M19.27,33l0-.23-.22.13C19.2,32.86,19.13,33.2,19.27,33Z"/><path class="cls-1" d="M19.15,36.1c.1-.12.21-.35.32-.51l-.19.07A.79.79,0,0,1,19.15,36.1Z"/><path class="cls-1" d="M19.47,35.59l.29-.1C19.67,35.37,19.57,35.46,19.47,35.59Z"/><polygon class="cls-1" points="19.61 34.32 19.07 34.58 19.66 34.34 19.61 34.32"/><polygon class="cls-1" points="19.62 36.5 19.33 36.72 19.79 36.4 19.62 36.5"/><path class="cls-1" d="M20,36.7c-.24.19-.24.45-.41.54.12,0,.35-.11.56-.23C20,37.05,19.93,37,20,36.7Z"/><path class="cls-1" d="M20.45,36.85a1.57,1.57,0,0,0-.32.16A1.16,1.16,0,0,0,20.45,36.85Z"/><path class="cls-1" d="M19.93,35.72a.89.89,0,0,0-.17.42l.22-.38Z"/><path class="cls-1" d="M20,35.75h0a.53.53,0,0,1,.09.11Z"/><path class="cls-1" d="M19.92,35.71h0S20,35.67,19.92,35.71Z"/><path class="cls-1" d="M19.7,34.88c.23-.12.54-.2.62-.61C20.08,34.46,20,34.69,19.7,34.88Z"/><path class="cls-1" d="M20.19,35.24l-.07-.18a1.06,1.06,0,0,1-.26.3Z"/><polygon class="cls-1" points="20.34 35.19 20.19 35.24 20.22 35.31 20.34 35.19"/><path class="cls-1" d="M20.47,36.35a.31.31,0,0,1,.33,0,.43.43,0,0,0-.15-.28C20.56,36.13,20.37,36.3,20.47,36.35Z"/><path class="cls-1" d="M20.26,36h0S20.3,36,20.26,36Z"/><path class="cls-1" d="M21.51,36.89l0-.07,0,0Z"/><path class="cls-1" d="M20.69,36c0-.12-.11-.06-.22,0a.27.27,0,0,1,.18,0S20.72,36,20.69,36Z"/><path class="cls-1" d="M20.77,36.85a1.36,1.36,0,0,0,0-.27C20.76,36.71,20.69,36.92,20.77,36.85Z"/><path class="cls-1" d="M20.23,36.13h0C20.17,36.22,20.2,36.19,20.23,36.13Z"/><path class="cls-1" d="M20.23,36.13a2.1,2.1,0,0,0,.24-.14.33.33,0,0,0-.19,0Z"/><path class="cls-1" d="M23.43,34.91c-.26.3-.64.47-.5,0a6.19,6.19,0,0,0-1.39,1.88,1,1,0,0,1,.49-.34c.09-.2,0-.63.36-.82.3,0,.06.23,0,.46.24-.45.67-.39,1.09-1l-.32.07C23.24,35.12,23.41,35,23.43,34.91Z"/><path class="cls-1" d="M21.32,36.58h-.09a1.3,1.3,0,0,1-.15.57,1,1,0,0,0,.42-.28l-.24-.25Z"/><path class="cls-1" d="M21,36.39c.31-.31.55-.35.76-.78-.18-.1-.33.2-.55.27.33.12-.22.12-.19.47a.44.44,0,0,1-.21,0,.75.75,0,0,1,0,.26l0,0h0s0-.08,0,0h0l.11-.11c0,.13-.05.09-.11.11l0,0h0l.4,0C21.21,36.49,21.14,36.44,21,36.39Z"/><path class="cls-1" d="M21,33.66a.16.16,0,0,1-.05.08C21,33.72,21.06,33.69,21,33.66Z"/><path class="cls-1" d="M21,34c-.06,0-.18.15-.21.07s.12-.16.21-.28a.49.49,0,0,0-.34.4l.06,0a1.83,1.83,0,0,1-.25.76A7.06,7.06,0,0,0,21,34Z"/><path class="cls-1" d="M21.06,35.09h.35l.12-.38-.14.18C21.33,34.73,21.18,35,21.06,35.09Z"/><polygon class="cls-1" points="21.4 37.07 21.09 37.41 21.61 37 21.4 37.07"/><polygon class="cls-1" points="21.71 37.26 21.45 37.56 21.68 37.43 21.71 37.26"/><path class="cls-1" d="M40.57,46l.14,0A.32.32,0,0,0,40.57,46Z"/><path class="cls-1" d="M40.13,45.63l-.13.14C40.09,45.7,40.15,45.65,40.13,45.63Z"/><path class="cls-1" d="M28.62,42.7c-.14.37-.4.9-.13.54l.24-.36C28.62,42.89,28.6,42.81,28.62,42.7Z"/><path class="cls-1" d="M34.94,44.43l.06-.12-.33.27Z"/><path class="cls-1" d="M36.13,43.08l-.06.32A1.13,1.13,0,0,0,36.13,43.08Z"/><path class="cls-1" d="M43.36,47.65l.35-.29C43.6,47.27,43.51,47.49,43.36,47.65Z"/><path class="cls-1" d="M24.68,39.42a.52.52,0,0,0,0,.36C24.77,39.51,24.93,39.15,24.68,39.42Z"/><path class="cls-1" d="M37.52,49.47a.5.5,0,0,0,.22-.16A.37.37,0,0,0,37.52,49.47Z"/><path class="cls-1" d="M25,40s0-.07,0-.11-.2,0-.26-.07C24.67,40,24.68,40.13,25,40Z"/><path class="cls-1" d="M52.22,55.17s0,0,0,.06S52.24,55.17,52.22,55.17Z"/><path class="cls-1" d="M52.13,60.7a.3.3,0,0,1-.13-.06S52,60.7,52.13,60.7Z"/><path class="cls-1" d="M22.72,38.3c-.08,0,0,0,0,0Z"/><path class="cls-1" d="M23.5,36.73a1,1,0,0,0,.16-.15A.66.66,0,0,1,23.5,36.73Z"/><path class="cls-1" d="M27.22,38.32h0C27.26,38.25,27.25,38.26,27.22,38.32Z"/><path class="cls-1" d="M22.75,38.08a.43.43,0,0,0,0,.16A.42.42,0,0,0,22.75,38.08Z"/><path class="cls-1" d="M22.64,38.25a.34.34,0,0,0,0-.08C22.56,38.22,22.54,38.26,22.64,38.25Z"/><path class="cls-1" d="M22.82,38.35a.14.14,0,0,1-.07-.11.16.16,0,0,1,0,.06Z"/><path class="cls-1" d="M46.63,52.2s0,0,0,0C46.79,52.15,46.75,52.15,46.63,52.2Z"/><path class="cls-1" d="M33,40.41h0v0Z"/><path class="cls-1" d="M33.39,40.33c-.43.35-.44.26-.44.11l-.71,1Z"/><path class="cls-1" d="M41.75,46.79l.09-.42c.58-.36.58-.08.78-.62-.87,1-.67-.36-1.54.68l.08-.3s.08,0,.09,0c.22-.66-.75.65-.88.3a.42.42,0,0,1,.2-.43l-.4.11c0-.06.12-.24.16-.17L40,45.8l0,0c-.18.13-.48.32-.61.39,0-.21.13-.08.21-.23l-.36.13c.15-.33.5-.49.58-.36.69-1.18-.35.16-.18-.72l.26,0c.38-.68.09-.55.21-1.07-.11.23-.41,1.23-.79,1.35,0-.12,0-.21-.29-.07.3-.38.13-.36,0-.43l.41-.5c-.24,0-.44.31-.69.48-.1-.16.18-.58.41-.93-.16-.26-.34.75-.68.63,0-.34-.33-.24-.79-.12,0-.28.26-.29.33-.47l-.43.31s.08-.15.14-.21c-.22.08-.41.5-.67.51-.48.52.33-1-.36-.58.07-.18.27-.29.41-.49a3.69,3.69,0,0,0-1.12.5l.08-.47a2.2,2.2,0,0,1-1.13,1c-.1.22-.18.41-.22.51l-.45.08a1.6,1.6,0,0,1,.4-.44l-.13.09a1.61,1.61,0,0,1,.62-.74c0,.12-.11.25-.16.38a5.61,5.61,0,0,0,.84-.85.37.37,0,0,1-.18.07,1,1,0,0,0,.18-.19c0-.06-.08,0-.22.13l.39-.61-.19.22,0-.6c-.67.38-1.52,1.05-2.06,1a6.9,6.9,0,0,0,1-1.13c-.32.59.44,0,.54.25-.05-.13.16-.35.25-.41l-.7.21c.32-.39.16-.36.21-.59-.56.84-.66.33-1,.46.2-.27.45-.51.56-.32.29-.73-1,.74-.74.1.05,0,0,.08.16,0-.28.16-.36-.21-.13-.39l.05,0a.83.83,0,0,0-1.37,0c.07-.09.67-.77.8-.9L31.05,42.6c.5-.54,1.42-2,1.9-2.18,0-.13,0-.28-.29-.19a3.31,3.31,0,0,1-.65.92A5.86,5.86,0,0,0,32.4,40c0,.17-.82,1-.9.9.12-.12.7-.89.81-1l-1,.67a3.42,3.42,0,0,0,.74-1c-.11.2-.2-.19-.34-.15l-.05.29c-.18-.36-1.27,1-1.52.74.18-.16,1-1.05.92-1.28a13.63,13.63,0,0,1-2.54,2.08l.15-.29-.42.14A33,33,0,0,1,31.06,39c.05-.29.21-.33,0-.43a.42.42,0,0,1,.44-.28l-.25-.45c-.4.54-.71.3-1,.75l.84-.22c-.4.54-1.43,1.3-1.62,1a8.28,8.28,0,0,1,.94-1.08c-.18.16-.53.15-.45,0l.33-.19c0-.31-.79.51-.57-.14,0-.08.36-.82.1-.51a22.65,22.65,0,0,1-2.26,2.94,6,6,0,0,1,.3-1.18c.28-.55,1-1,1.28-1.47a1.71,1.71,0,0,1-.38.31c0-.17.38-.42.19-.47-.45.52-.25-.27-.43.4-.25.05-.05-.22-.23-.33a3.42,3.42,0,0,1-1.34,1.1,2.34,2.34,0,0,0,.28-.42c-.24-.27-.2-.63-.45-.84.08-.15.08-.41.31-.59-.11.06-.29.22-.38.16.21-.58.24.08.56-.57-.26.3-.55.26-.82.36-.34.51.19.3.46.2a3.53,3.53,0,0,1-1.79,1.28c-.34,0,.25-.5.14-.43-.32-.44-1.27.87-1.22.13.2-.53.66-.84.87-1.17.3,0,.06.48.19.56v-.32c.17-.09.37-.1.34.07.19-.47-.63-.62-.67-1.22-.16.1-.38.17-.47.37l.15,0c-.18.42-.56.33-.56.58-.32.14-.77.39-.8.05l.34-.51c-.1.15-.1.39.07.28-.25.15.23-.87-.36-.32l-.13.44c-.33.14-.9.51-.94.23-.31.53.08,0-.25.62.45-.77.4.37.82-.48-.39.74,0,.44-.29,1.11.12-.16.19-.35.26-.16l.14-.11v0s0,0,0,0a1.19,1.19,0,0,1,.12-.29c.36-.31.57-.13.8-.25,0,.14-.18.15-.27.35l.34-.19c-.27.36-.25.76-.61.81l.16.16c-.05.28,0,.47.23.39,0,.14.52-.22.23,0h.45l-.07.08c.24.26,1-.13.83.75.16,0,.34-.05.41.17l-.21.33c.2,0,.11.58.41.3-.52.92.43.64.52.94l.32-.39c.12.14.35.14.65.12l.27-.36c.38-.17.19.56.46.71-.12.12-.16,0-.13-.08-.35,1,1.06-.09.86.69.17-.07.18,0,.15.13h0s0,0,0,0-.05.18-.06.26a.8.8,0,0,0,.07-.25.48.48,0,0,0,.31,0l-.27.4h0c0,.2.2-.13.39-.45a1.4,1.4,0,0,0,.27-.14c-.42.65.36,0-.07.66.3-.28.56.06,1.13-.58-.07.09-.08.15-.12.13,0,.14,0,.28.27.15l-.35.51.69-.5a1.34,1.34,0,0,1-.61.86c.71-.35.38,0,1.05-.42l-.26.3c.09.05.55-.26.4,0-.29.73.82.79.84,1.7.64-1-.11.58.47-.11-.15.24-.18.41-.4.54.4,0,.08.62.71.15-.14.24-.3.28-.38.43.06,0,.23-.13.15,0s-.18.15-.29.21c.27.16.82-.49,1.34-1.1-.12.4,0,.4.39.06-.12.24-.22.51-.43.46.06.1.27.71.68.22-.07.15.09.13.16.09.16.18.14.24.36.34l0-.13c.55-.54.26,0,.46,0l-.05.06c0,.7.31-.1.26.67l.28-.39c.67-.78-.09.71.36.56l.1-.27c.32-.19-.58,1.33-.55,1.52s-.13.08-.2.11c-.1.7.42-.46.72-.41-.17.29-.58.63-.48.79-.1.28,1.09-.53.88.13.12-.24.24-.47.46-.55s-.22,1.09.43.56a.52.52,0,0,1-.1.18c.25-.08.59,0,.94-.28-.93,1.38,1.21-.07.25,1.13l.4.21-.1.12c.16.25.46,0,.77-.19,0,.12-.14.2-.19.26.13.5.2.48.95.1l-.28.41c.26-.17,0,1,.67.79A.61.61,0,0,1,41,52c.72-.17,0,1.76,1.26.46l.51-.16c-.22-.35.54-.58.6-.91.19,0,0,.67-.23.63l0-.09c-.64.69.17.56-.23,1.06.63.44.89,1.32,1.44,1.81l.39-.63.17.19c-.06.18-.29.51-.41.37-.18.38.45-.08.56-.2.09.45-.64.58-.57.66l.15.05,0-.09c.28-.16.48-.4.63-.24s-.23.4-.2.45,0,.08,0,.07l.21.25.26-.53c.29-.14.21.21.51-.39-.46.92.7,1,.61,1.35.42-.21.57-.08.72.11,0-.13.41-.66.52-.47-.89,1-.06.69-.53,1.55.28-.59.56.25.94-.61.07.19-.3.4-.4.73.65-.15.51.83,1,1,.11-.13.21-.39.46-.53l-.33.86c.13,0,.7-.74.46-.14.08-.14.19-.34.27-.34.25,1.3,2,.73,1.84,2.63.1-.36.19-.33.28-.27,0-.11.28-.34.42-.53l-.08.78c.47-.47.38.25.81-.22H53c.61-.47.84-1.46,1.46-2.19-.69.54.37-1.31-.65-.57.07-.2.24-.2.35-.4-.32.27-.45.28-.48,0l.08-.06c-.48-.25-.4-.71-.7-1.29l-.26.4c-.06-.13,0-.26,0-.39-.56.47.26.25-.34.79.47-.86-.69-.57-.1-1.5-.15-.12-.3.47-.44.34l.14-.26-.28.26c-.06-.13.12-.46.28-.65,0,0,.11,0,.15,0,.09-.38-.44-.2-.42-.32l0,.26c-.59-.12-.86-.83-1.64-.68l-.11.2c-.56.08-.09-.39-.55-.51l.05,0c-.21.12-.37.14-.44,0,.24-.13.15-.52.45-.66-.61.08-.39.14-1.13.61l.19-.33c-.29.21-.41.34-.63.28.33-.14.24-.53.66-.73.15-.92-1,.22-.46-.84-.8.67,0,.69-.28.79-.13.32-.61.49-.66.32s.63-1.18.33-1.39c0,0,.08,0,.1,0,.06-.29-.43.11-.29-.33-.46.43-.15-.16-.66.44l.37.06c-.28,0-1,.66-1,.12a1.58,1.58,0,0,1,.44-.27c.07-.24-.23,0-.16-.24.52-.6.43.12,1-.22.13-.33-.66.21,0-.4-.8.76-.2-.33-.91.17l.31-.37c-.08,0-.28.16-.33.11l.49-.4c-.49.28,0-.6-.34-.5.32.24-.29.51-.37.88-.79.19.55-1.14,0-1.31.1,0,0,.4-.18.5a1.1,1.1,0,0,1,.09-.61c-.35-.15-.27.42-.57.55.26-.53-.29.07-.53.11l.3-.37c-.13-.51-.71.71-.77.19l.54-.43-.26,0,.37-.41c-.42.19-.4.06-.47-.19-.18.3-.57.67-.72.57.08-.31.34-.32.09-.43.23-.2.52-.45.33,0,.11-.12.24-.2.34-.32.1-.34-.22-.27-.29-.32a.23.23,0,0,1,0,.15l-.72.28a.71.71,0,0,1,.32-.34c-.09,0-.27.13-.38.09.26-.29.51-.61.75-.65l-.55.11c.08-.14.14-.48.27-.56,0-.31-.86.29-.88-.12a.38.38,0,0,1-.2.1c-.14-.22,0-.74-.58-.5l.3-.66c-.28,0-.37.84-.84.8s.3-.53.34-.74c-.32.19-1,.61-.8,0C41.67,46.66,41.66,46.78,41.75,46.79Zm-2.43-1.54c.1,0,.38-.22.24,0C39.16,45.67,39.29,45.43,39.32,45.25Zm-4.13-1.81c.13-.09.13,0,.07.19C35.2,43.63,35.16,43.58,35.19,43.44ZM23.62,38.51h0C23.61,38.72,23.63,38.64,23.62,38.51Zm-.07-.32a.33.33,0,0,0-.14.15c.09-.09.14-.06.17,0C23.64,38.24,23.67,38.15,23.55,38.19ZM45.24,55.24l0-.13C45.45,55.08,45.35,55.15,45.24,55.24Z"/><path class="cls-1" d="M36,43.24a2.17,2.17,0,0,1-.15.22A.38.38,0,0,0,36,43.24Z"/><path class="cls-1" d="M43.3,47.7h0l.06-.06Z"/><path class="cls-1" d="M29.21,37.47a.61.61,0,0,1-.08.26C29.21,37.64,29.25,37.55,29.21,37.47Z"/><path class="cls-1" d="M22,38h.21c-.08,0,0-.14,0-.22C22.09,37.86,22,38,22,38Z"/><path class="cls-1" d="M22.71,34.76c-.05,0,0,0-.1,0l-.13.18A.17.17,0,0,0,22.71,34.76Z"/><path class="cls-1" d="M22.85,36.63c.24-.32.08-.28-.06-.29h0C22.42,36.77,22.64,36.7,22.85,36.63Z"/><path class="cls-1" d="M22.76,36.33a.11.11,0,0,1-.09-.06C22.52,36.44,22.67,36.34,22.76,36.33Z"/><path class="cls-1" d="M23.12,38.2c0-.12-.35.38-.27.23C22.48,38.8,23.53,38.17,23.12,38.2Z"/><polygon class="cls-1" points="23.61 35.53 23.33 35.95 23.63 35.67 23.61 35.53"/><path class="cls-1" d="M24.09,36.38,24,36.16a.22.22,0,0,1-.15.1C24,36.35,24,36.5,24.09,36.38Z"/><path class="cls-1" d="M23.89,36.26a.12.12,0,0,0-.17,0A.28.28,0,0,0,23.89,36.26Z"/><polygon class="cls-1" points="23.9 35.57 23.88 35.68 23.96 35.79 23.9 35.57"/><path class="cls-1" d="M25.58,37.69l.25,0c.12-.12.14-.24,0-.23S25.66,37.55,25.58,37.69Z"/><path class="cls-1" d="M26,36.24a1.27,1.27,0,0,1-.17.36l.4-.49Z"/><path class="cls-1" d="M26.51,36.49c.12-.12.54-.2.31-.33C26.7,36.28,26.45,36.27,26.51,36.49Z"/><polygon class="cls-1" points="28.39 39 28.34 38.97 27.71 39.77 28.39 39"/><path class="cls-1" d="M32,38.76c0-.34-.44.45-.42.08-.19.15,0,.3-.19.43C31.66,39.16,31.63,39.32,32,38.76Z"/><path class="cls-1" d="M31.39,39.27l-.15.08Z"/><polygon class="cls-1" points="52.23 61.48 52.22 61.74 52.36 61.41 52.23 61.48"/><path class="cls-1" d="M52.93,61.07l-.37.53.43-.4S52.86,61.2,52.93,61.07Z"/><path class="cls-1" d="M39.8,44l-.11.12c-.08.14-.06.18,0,.24Z"/><polygon class="cls-1" points="41.12 45.64 41.1 45.6 40.79 46.1 41.12 45.64"/><path class="cls-1" d="M43,46.14c0-.06-.19,0-.23-.08C42.91,46.08,42.51,46.72,43,46.14Z"/><path class="cls-1" d="M4.84,54.56c0-.06-.18.34-.22.4C4.76,54.92,4.87,54.45,4.84,54.56Z"/><polygon class="cls-1" points="6.23 54.08 6.15 54.23 6.46 53.9 6.23 54.08"/><path class="cls-1" d="M7.21,54.47c.17-.7-.4,0-.48-.33l0-.17-.29.51C6.72,54.48,7.13,54.23,7.21,54.47Z"/><path class="cls-1" d="M7.17,56.12c.07-.28.2-.18-.09-.13v.07A.27.27,0,0,1,7.17,56.12Z"/><path class="cls-1" d="M7.08,56.06c-.11,0,0,.25,0,0Z"/><path class="cls-1" d="M7.61,56.1l-.23.18c0,.16.08.24,0,.34C7.56,56.55,7.59,56.38,7.61,56.1Z"/><path class="cls-1" d="M7.93,55.67l-.11.07C7.81,55.81,7.82,55.83,7.93,55.67Z"/><path class="cls-1" d="M7.59,55.88l.23-.14c0-.12.11-.34-.1,0C7.81,55.59,7.71,55.77,7.59,55.88Z"/><path class="cls-1" d="M7.55,55.75c0-.18-.09-.3.14-.48C7.39,55.26,7.25,55.74,7.55,55.75Z"/><path class="cls-1" d="M7.53,53.81l0-.24-.17.19C7.42,53.67,7.46,54,7.53,53.81Z"/><path class="cls-1" d="M8.32,56.78a5.83,5.83,0,0,0,.17-.58l-.17.12A.71.71,0,0,1,8.32,56.78Z"/><path class="cls-1" d="M8.49,56.2,8.73,56C8.61,55.93,8.54,56,8.49,56.2Z"/><polygon class="cls-1" points="8.24 54.94 7.8 55.35 8.29 54.95 8.24 54.94"/><polygon class="cls-1" points="8.89 57.02 8.68 57.31 9.02 56.88 8.89 57.02"/><path class="cls-1" d="M9.29,57.11c-.17.25-.09.49-.22.64.12,0,.3-.21.46-.39C9.4,57.44,9.32,57.38,9.29,57.11Z"/><path class="cls-1" d="M9.78,57.11c-.06,0-.15.15-.25.25A1,1,0,0,0,9.78,57.11Z"/><path class="cls-1" d="M9,56.18a1,1,0,0,0,0,.45l.1-.42Z"/><path class="cls-1" d="M9,56.2H9l.12.08Z"/><path class="cls-1" d="M9,56.18H9S9,56.13,9,56.18Z"/><path class="cls-1" d="M8.5,55.45c.17-.19.45-.35.4-.76C8.73,54.94,8.76,55.17,8.5,55.45Z"/><path class="cls-1" d="M9.07,55.65l-.13-.15a1,1,0,0,1-.15.36Z"/><polygon class="cls-1" points="9.2 55.55 9.07 55.65 9.11 55.71 9.2 55.55"/><path class="cls-1" d="M9.66,56.63A.32.32,0,0,1,10,56.5a.44.44,0,0,0-.23-.22C9.68,56.4,9.55,56.6,9.66,56.63Z"/><path class="cls-1" d="M9.36,56.39l0,0S9.39,56.32,9.36,56.39Z"/><path class="cls-1" d="M10.81,56.84s0-.06,0-.08l0,.07Z"/><path class="cls-1" d="M9.76,56.2c0-.11-.12,0-.21.08a.31.31,0,0,1,.19,0C9.77,56.22,9.79,56.19,9.76,56.2Z"/><path class="cls-1" d="M10.09,57a1.09,1.09,0,0,0,0-.26C10,56.89,10,57.11,10.09,57Z"/><path class="cls-1" d="M9.37,56.49h0C9.34,56.6,9.35,56.55,9.37,56.49Z"/><path class="cls-1" d="M9.37,56.49l.18-.21a.43.43,0,0,0-.16.09A.43.43,0,0,0,9.37,56.49Z"/><path class="cls-1" d="M12.07,54.38c-.16.37-.48.64-.48.18a6.35,6.35,0,0,0-.77,2.2.9.9,0,0,1,.37-.47c0-.22-.16-.6.1-.89.29-.1.12.2.15.44.09-.5.53-.57.75-1.26l-.28.17C12,54.64,12.08,54.5,12.07,54.38Z"/><path class="cls-1" d="M10.54,56.6l-.08,0a1.59,1.59,0,0,1,0,.59.91.91,0,0,0,.31-.38l-.3-.18Z"/><path class="cls-1" d="M10.16,56.51c.21-.38.43-.49.51-1-.2,0-.27.28-.45.41.35,0-.17.19,0,.5a.29.29,0,0,1-.21,0,.92.92,0,0,1,.09.25v0h0c0-.06,0-.09,0-.06h0c0-.06.05-.1.07-.15.06.12,0,.11-.07.15l0,.06h0l.4-.1C10.41,56.54,10.33,56.52,10.16,56.51Z"/><path class="cls-1" d="M9.41,53.89l0,.1S9.44,53.92,9.41,53.89Z"/><path class="cls-1" d="M9.44,54.18s-.13.2-.18.13.07-.19.12-.32c-.08.09-.27.23-.2.47l0,0a1.85,1.85,0,0,1,0,.79A8.56,8.56,0,0,0,9.44,54.18Z"/><path class="cls-1" d="M9.85,55.25l.33-.1v-.4l-.08.21C10,54.83,9.93,55.09,9.85,55.25Z"/><polygon class="cls-1" points="10.76 57.05 10.56 57.46 10.94 56.92 10.76 57.05"/><polygon class="cls-1" points="11.11 57.13 10.96 57.49 11.13 57.3 11.11 57.13"/><path class="cls-1" d="M31.71,59.93l.12-.07Z"/><path class="cls-1" d="M31.18,59.69l-.09.18C31.16,59.78,31.2,59.71,31.18,59.69Z"/><path class="cls-1" d="M19.32,60.3c0,.38-.12,1,0,.55l.13-.42C19.37,60.47,19.33,60.4,19.32,60.3Z"/><path class="cls-1" d="M25.87,60.08s0-.09,0-.13l-.22.36Z"/><path class="cls-1" d="M26.6,58.44l0,.32A.91.91,0,0,0,26.6,58.44Z"/><path class="cls-1" d="M34.86,60.67l.25-.37C35,60.25,35,60.48,34.86,60.67Z"/><path class="cls-1" d="M14.59,58.32c0,.19.08.29.14.33C14.7,58.38,14.75,58,14.59,58.32Z"/><path class="cls-1" d="M29.82,64.13a.47.47,0,0,0,.16-.22A.4.4,0,0,0,29.82,64.13Z"/><path class="cls-1" d="M15,58.76s0-.07,0-.12-.19.07-.26,0C14.74,58.86,14.8,59,15,58.76Z"/><path class="cls-1" d="M45.54,65.25v.06C45.57,65.25,45.56,65.24,45.54,65.25Z"/><path class="cls-1" d="M47.09,70.56a.41.41,0,0,1-.15,0S47,70.59,47.09,70.56Z"/><path class="cls-1" d="M12.39,57.83c-.09,0,0,0,0,0Z"/><path class="cls-1" d="M12.67,56.1a.65.65,0,0,0,.1-.19A.78.78,0,0,1,12.67,56.1Z"/><path class="cls-1" d="M16.69,56.52h0C16.71,56.44,16.7,56.45,16.69,56.52Z"/><path class="cls-1" d="M12.35,57.6a.62.62,0,0,0,0,.16A.41.41,0,0,0,12.35,57.6Z"/><path class="cls-1" d="M12.29,57.8s0,0,0-.06S12.2,57.85,12.29,57.8Z"/><path class="cls-1" d="M12.49,57.85a.21.21,0,0,1-.1-.09.16.16,0,0,1,0,.07Z"/><path class="cls-1" d="M39.32,64.06v0C39.46,64,39.42,64,39.32,64.06Z"/><path class="cls-1" d="M22.8,56.82l0,0v0Z"/><path class="cls-1" d="M23.17,56.62c-.3.46-.34.38-.38.24l-.37,1.2Z"/><path class="cls-1" d="M33.07,60.33l0-.43c.45-.52.52-.25.56-.83-.52,1.26-.75-.14-1.27,1.12v-.32s.06,0,.09,0c0-.69-.53.85-.75.55a.43.43,0,0,1,.06-.47l-.35.23c-.05,0,.05-.27.1-.22l-.38,0v0a5.77,5.77,0,0,1-.46.55c0-.22.09-.12.13-.28l-.31.23c.05-.36.33-.62.45-.52.31-1.33-.29.26-.39-.63l.25-.09c.16-.76-.08-.56-.11-1.09,0,.26,0,1.29-.36,1.52,0-.11-.09-.19-.3,0,.18-.45,0-.38-.13-.41l.25-.59c-.22.11-.33.42-.52.65-.14-.12,0-.6.12-1-.23-.2-.11.81-.47.8-.13-.32-.38-.13-.79.12-.07-.27.17-.36.18-.55l-.32.42s0-.16.07-.23c-.18.13-.24.59-.49.68-.3.63,0-1.11-.51-.45,0-.19.17-.36.24-.59a3.47,3.47,0,0,0-.91.81l-.07-.48a2.18,2.18,0,0,1-.77,1.32c0,.24-.06.45-.06.55l-.41.21a1.37,1.37,0,0,1,.26-.53l-.11.12a1.7,1.7,0,0,1,.37-.89c0,.13,0,.27,0,.41a5.48,5.48,0,0,0,.56-1.07.32.32,0,0,1-.16.13.67.67,0,0,0,.12-.24c0-.06-.07.06-.17.19l.19-.69-.11.26L26.1,58c-.53.56-1.15,1.45-1.68,1.56A6.11,6.11,0,0,0,25,58.17c-.13.66.43-.13.6.08-.09-.11,0-.37.11-.46l-.61.4c.19-.46.06-.38,0-.62-.29,1-.53.51-.8.73.11-.31.27-.62.44-.47.06-.78-.71,1-.69.31.05,0,.06.07.14-.08-.22.23-.4-.09-.23-.34H24a.83.83,0,0,0-1.31.39c0-.1.41-.94.5-1.09l-1.61,2.45c.32-.66.76-2.36,1.17-2.64,0-.13-.08-.28-.33-.1a3.45,3.45,0,0,1-.35,1.07,6.16,6.16,0,0,0,0-1.19c0,.17-.49,1.2-.59,1.12.08-.15.4-1.05.49-1.15l-.71.93a3.67,3.67,0,0,0,.41-1.2c0,.21-.26-.12-.38,0l0,.29c-.28-.29-.92,1.34-1.23,1.15.12-.2.62-1.29.5-1.49A13.74,13.74,0,0,1,18.85,59l.06-.33-.36.26a34,34,0,0,1,2-2.86c0-.3.11-.38-.09-.43a.41.41,0,0,1,.33-.39l-.37-.35c-.22.63-.58.49-.77,1l.74-.46c-.23.63-1,1.67-1.25,1.43a9.1,9.1,0,0,1,.57-1.3c-.12.2-.46.29-.43.13l.27-.28c-.08-.31-.61.72-.59,0-.05-.07.1-.89-.06-.53a22.13,22.13,0,0,1-1.29,3.49,6.34,6.34,0,0,1-.06-1.22c.1-.61.71-1.27.79-1.79a1.59,1.59,0,0,1-.27.41c0-.17.24-.51,0-.5-.27.62-.31-.19-.29.5-.23.12-.12-.19-.32-.24A3.62,3.62,0,0,1,16.55,57a2.72,2.72,0,0,0,.14-.49c-.31-.19-.37-.54-.68-.67,0-.17-.05-.41.13-.66-.09.1-.22.3-.32.27,0-.62.25,0,.36-.71-.15.36-.44.41-.67.59-.18.58.27.23.5,0a3.55,3.55,0,0,1-1.33,1.75c-.34.1.08-.55,0-.45-.43-.33-.95,1.21-1.13.48A5.42,5.42,0,0,1,14,55.8c.28-.11.2.44.34.48L14.3,56c.14-.14.32-.21.34,0,0-.5-.78-.41-1-1-.13.14-.31.27-.34.49l.15,0c-.05.45-.44.47-.37.72-.27.22-.62.6-.75.28l.18-.59c-.06.17,0,.4.14.25-.19.22,0-.91-.43-.2v.46c-.27.22-.7.75-.83.5-.13.59.07,0-.05.66.2-.87.49.24.64-.7-.16.82.12.42,0,1.15.07-.2.07-.39.2-.23a1.11,1.11,0,0,1,.11-.16v0s0,0,0,0a.89.89,0,0,1,0-.32c.25-.4.51-.28.68-.47.07.13-.12.2-.15.42l.27-.28c-.15.42,0,.79-.34.95l.2.1c0,.28.16.44.33.3.07.13.43-.36.22-.07l.43-.13,0,.11c.3.18.94-.43,1,.46.15-.06.31-.14.44,0l-.1.37c.19-.07.27.53.48.17-.23,1,.59.48.77.75l.2-.47c.15.09.37,0,.65-.08l.15-.43c.32-.27.35.48.65.55-.08.15-.14.08-.15,0,0,1.07,1-.41,1,.4.13-.12.17-.05.18.08h0s0,0,0,0a1.23,1.23,0,0,0,0,.27,1.71,1.71,0,0,0,0-.26.52.52,0,0,0,.31-.07l-.14.46h0c0,.2.16-.18.24-.54a1.14,1.14,0,0,0,.22-.22c-.21.75.33-.15.13.66.2-.36.55-.11.91-.89,0,.11,0,.17-.08.15.06.13.12.26.3.07l-.18.59.51-.68a1.36,1.36,0,0,1-.33,1c.58-.55.35-.16.88-.72l-.15.36c.1,0,.44-.41.38-.08-.06.78,1,.51,1.31,1.37.32-1.12.06.59.41-.24-.07.27-.05.44-.22.63.37-.14.26.57.73-.06-.07.27-.21.35-.24.51,0,0,.17-.18.14,0s-.12.2-.21.29c.3.07.64-.71.95-1.44,0,.41.1.39.4-.06-.05.26-.07.55-.28.57.09.07.47.59.72,0,0,.16.12.1.17,0,.21.12.21.19.45.21l0-.12c.37-.68.24-.08.45-.1l0,.07c.2.68.27-.18.44.57l.15-.46c.42-.94.14.71.51.43l0-.28c.26-.28-.16,1.44-.08,1.61s-.09.12-.16.16c.11.7.28-.56.58-.6-.08.33-.38.78-.23.9,0,.29.88-.83.88-.14a1,1,0,0,1,.27-.66c.21,0,.12,1.11.58.4a.59.59,0,0,1,0,.2c.21-.14.57-.15.81-.53-.48,1.59,1.14-.43.58,1l.44.08-.07.14c.23.2.46-.1.69-.41,0,.12-.08.24-.11.31.28.44.34.4.94-.18l-.14.47c.19-.23.27.94.87.56a.92.92,0,0,1-.13.19c.64-.38.53,1.68,1.34.06l.45-.3c-.32-.28.34-.71.3-1,.18,0,.17.65,0,.67v-.09c-.41.85.33.48.09,1.08.73.24,1.25,1,1.91,1.3l.18-.71.23.13c0,.18-.13.56-.29.47-.06.42.41-.21.47-.36.22.41-.44.75-.34.8h.15v-.09c.22-.23.34-.52.53-.41s-.1.45-.06.49,0,.08.07,0l.27.18.1-.59c.23-.21.26.14.37-.52-.17,1,1,.77,1,1.11.34-.32.52-.24.72-.11,0-.13.19-.75.36-.6-.56,1.22.14.68-.05,1.64.09-.65.61.07.72-.86.12.16-.18.47-.17.81.58-.33.73.65,1.27.67a1.62,1.62,0,0,1,.29-.64l-.07.91c.12,0,.46-.91.4-.27,0-.15.08-.37.16-.4.62,1.17,2.17.1,2.53,2,0-.37.09-.37.19-.34s.16-.41.24-.63l.15.77c.32-.59.45.12.72-.45l-.17.06c.44-.63.37-1.64.75-2.52-.5.72,0-1.36-.79-.35,0-.21.17-.27.22-.49-.23.35-.36.4-.46.16l0-.09c-.52-.1-.58-.56-1-1l-.13.46c-.09-.1-.06-.25-.08-.38-.39.61.32.16-.09.85.19-1-.83-.34-.53-1.4-.18-.08-.15.53-.33.46l.06-.3-.19.34c-.09-.11,0-.48.07-.71,0,0,.11,0,.15,0,0-.39-.48-.06-.49-.19l.1.24c-.59.06-1.06-.54-1.76-.16l0,.22c-.52.24-.21-.35-.68-.32l0-.05c-.17.18-.31.24-.41.17.19-.2,0-.55.23-.76-.56.25-.32.24-.89.91l.08-.36c-.22.27-.29.43-.52.45.28-.24.07-.58.41-.9-.12-.92-.92.52-.68-.66-.57.88.15.67,0,.83,0,.35-.44.65-.54.51s.25-1.32-.09-1.43c0,0,.06,0,.09,0,0-.29-.38.24-.38-.22-.31.54-.19-.11-.5.61l.38,0c-.25.12-.76.92-.88.38a1.59,1.59,0,0,1,.34-.38c0-.25-.22.08-.22-.18.32-.73.44,0,.85-.5,0-.35-.56.39-.16-.37-.53,1-.28-.26-.81.43l.19-.44c-.07.06-.23.24-.29.2l.35-.53c-.38.42-.19-.56-.47-.37.37.13-.13.57-.1,1-.69.41.19-1.26-.41-1.25.1,0,.16.37,0,.53a1.15,1.15,0,0,1-.09-.6c-.38,0-.13.47-.38.69.09-.59-.25.15-.47.26l.17-.45c-.27-.44-.47.9-.68.41l.39-.56-.24.09.24-.5c-.35.3-.38.18-.51,0-.08.34-.35.81-.53.75,0-.31.24-.4,0-.43.16-.26.36-.59.31-.13.06-.14.16-.26.23-.4,0-.36-.29-.2-.38-.23a.15.15,0,0,1,0,.14l-.59.49a.69.69,0,0,1,.2-.43c-.09,0-.22.21-.34.21.17-.36.31-.73.53-.85l-.5.27c0-.16,0-.5.09-.62-.1-.28-.73.53-.87.15a.35.35,0,0,1-.16.16c-.2-.18-.24-.71-.71-.31l.1-.72c-.27.06-.11.91-.57,1s.13-.59.11-.81c-.26.28-.74.87-.76.24C33,60.23,33,60.35,33.07,60.33Zm-2.78-.76c.09-.07.3-.32.24,0C30.27,60,30.32,59.76,30.29,59.57Zm-4.48-.5c.1-.14.13,0,.13.16C25.88,59.24,25.83,59.21,25.81,59.07ZM13.3,57.77l0,0C13.36,58,13.35,57.88,13.3,57.77Zm-.16-.29a.3.3,0,0,0-.08.18c.06-.11.11-.09.16,0C13.25,57.5,13.25,57.41,13.14,57.48Zm25.75,9.9v-.14C39.05,67.15,39,67.26,38.89,67.38Z"/><path class="cls-1" d="M26.51,58.63a1.17,1.17,0,0,1-.07.25A.34.34,0,0,0,26.51,58.63Z"/><path class="cls-1" d="M34.82,60.74h0a.2.2,0,0,0,0-.08Z"/><path class="cls-1" d="M18.34,55.12a.62.62,0,0,1,0,.27C18.39,55.28,18.4,55.18,18.34,55.12Z"/><path class="cls-1" d="M11.57,57.74l.2-.05c-.08,0-.07-.12-.08-.2C11.66,57.59,11.62,57.76,11.57,57.74Z"/><path class="cls-1" d="M11.33,54.44c0,.05,0,0-.09,0l-.07.21A.17.17,0,0,0,11.33,54.44Z"/><path class="cls-1" d="M12,56.2c.13-.39,0-.3-.15-.27h0C11.65,56.46,11.84,56.33,12,56.2Z"/><path class="cls-1" d="M11.84,55.94a.12.12,0,0,1-.1,0C11.64,56.11,11.76,56,11.84,55.94Z"/><path class="cls-1" d="M12.74,57.61c0-.12-.22.47-.19.31C12.3,58.37,13.12,57.47,12.74,57.61Z"/><polygon class="cls-1" points="12.42 54.92 12.28 55.4 12.48 55.05 12.42 54.92"/><path class="cls-1" d="M13.13,55.59,13,55.4a.27.27,0,0,1-.11.14C13,55.59,13.08,55.73,13.13,55.59Z"/><path class="cls-1" d="M12.9,55.54a.13.13,0,0,0-.17,0A.21.21,0,0,0,12.9,55.54Z"/><polygon class="cls-1" points="12.71 54.87 12.72 54.99 12.83 55.07 12.71 54.87"/><path class="cls-1" d="M14.94,56.41l.24-.06c.08-.16.07-.27,0-.24S15,56.24,14.94,56.41Z"/><path class="cls-1" d="M14.88,54.91a1.54,1.54,0,0,1-.06.38l.23-.57Z"/><path class="cls-1" d="M15.47,55c.09-.16.46-.36.2-.42C15.59,54.73,15.35,54.79,15.47,55Z"/><polygon class="cls-1" points="18.01 56.82 17.96 56.81 17.59 57.76 18.01 56.82"/><path class="cls-1" d="M21.38,55.53c-.13-.31-.28.56-.37.2-.14.21.07.3-.06.47C21.18,56,21.2,56.18,21.38,55.53Z"/><path class="cls-1" d="M21,56.2l-.12.12A.66.66,0,0,0,21,56.2Z"/><polygon class="cls-1" points="47.41 71.27 47.47 71.53 47.51 71.17 47.41 71.27"/><path class="cls-1" d="M48,70.68l-.21.61.3-.51S47.93,70.82,48,70.68Z"/><path class="cls-1" d="M30.37,58.2l-.07.14c0,.17,0,.19.05.24Z"/><polygon class="cls-1" points="32.13 59.41 32.1 59.39 31.95 59.96 32.13 59.41"/><path class="cls-1" d="M34,59.35c-.06-.05-.18,0-.24,0C34,59.3,33.77,60,34,59.35Z"/><path class="cls-1" d="M.09,78.63C0,78.59,0,79,0,79.08S.09,78.52.09,78.63Z"/><polygon class="cls-1" points="1.28 77.77 1.25 77.94 1.45 77.53 1.28 77.77"/><path class="cls-1" d="M2.33,77.85c0-.72-.39.09-.56-.18v-.16l-.13.57C1.86,78,2.19,77.64,2.33,77.85Z"/><path class="cls-1" d="M2.78,79.44c0-.28.14-.23-.13-.1a.25.25,0,0,1,0,.07A.2.2,0,0,1,2.78,79.44Z"/><path class="cls-1" d="M2.67,79.41c-.11,0,.06.24,0,0Z"/><path class="cls-1" d="M3.19,79.29,3,79.53c0,.16.14.21.09.32C3.28,79.73,3.26,79.57,3.19,79.29Z"/><path class="cls-1" d="M3.37,78.78l-.08.1C3.3,79,3.31,79,3.37,78.78Z"/><path class="cls-1" d="M3.11,79.09l.18-.21c0-.12,0-.35-.08.07C3.24,78.74,3.19,79,3.11,79.09Z"/><path class="cls-1" d="M3,79c-.07-.16-.17-.26,0-.5C2.74,78.55,2.74,79.05,3,79Z"/><path class="cls-1" d="M2.44,77.12l-.09-.21-.12.23C2.29,77,2.43,77.35,2.44,77.12Z"/><path class="cls-1" d="M4.07,79.73c0-.15,0-.41,0-.6l-.12.16A.76.76,0,0,1,4.07,79.73Z"/><path class="cls-1" d="M4.06,79.13l.18-.25C4.1,78.84,4.06,79,4.06,79.13Z"/><polygon class="cls-1" points="3.46 77.99 3.15 78.52 3.51 77.99 3.46 77.99"/><polygon class="cls-1" points="4.69 79.79 4.57 80.14 4.77 79.62 4.69 79.79"/><path class="cls-1" d="M5.1,79.76c-.09.29.06.5,0,.67.12,0,.23-.28.33-.5C5.3,80.05,5.21,80,5.1,79.76Z"/><path class="cls-1" d="M5.57,79.61a2.24,2.24,0,0,0-.17.32A1.11,1.11,0,0,0,5.57,79.61Z"/><path class="cls-1" d="M4.51,79a.87.87,0,0,0,.09.44l0-.43Z"/><path class="cls-1" d="M4.57,79h0l.14,0Z"/><path class="cls-1" d="M4.49,79h0S4.5,78.92,4.49,79Z"/><path class="cls-1" d="M3.85,78.41c.11-.23.33-.47.16-.85C3.92,77.85,4,78.06,3.85,78.41Z"/><path class="cls-1" d="M4.45,78.43l-.16-.11a1.29,1.29,0,0,1,0,.39Z"/><polygon class="cls-1" points="4.55 78.3 4.45 78.43 4.51 78.47 4.55 78.3"/><path class="cls-1" d="M5.31,79.19A.3.3,0,0,1,5.57,79a.48.48,0,0,0-.29-.15C5.26,79,5.2,79.2,5.31,79.19Z"/><path class="cls-1" d="M5,79.05l0,0S5,79,5,79.05Z"/><path class="cls-1" d="M6.47,79.05a.19.19,0,0,1,0-.08s0,0,0,.08Z"/><path class="cls-1" d="M5.27,78.75c-.06-.09-.12,0-.17.14a.32.32,0,0,1,.18-.06C5.29,78.77,5.3,78.73,5.27,78.75Z"/><path class="cls-1" d="M5.83,79.43a1.33,1.33,0,0,0-.11-.24C5.75,79.33,5.81,79.54,5.83,79.43Z"/><path class="cls-1" d="M5,79.14s0,0,0,0S5,79.21,5,79.14Z"/><path class="cls-1" d="M5,79.14a1,1,0,0,0,.12-.25A.4.4,0,0,0,5,79,.45.45,0,0,1,5,79.14Z"/><path class="cls-1" d="M6.94,76.34c0,.39-.26.74-.39.3A6,6,0,0,0,6.46,79a.85.85,0,0,1,.22-.55c0-.22-.34-.53-.17-.88.24-.19.17.15.26.37,0-.5.34-.69.35-1.42l-.22.24C6.91,76.62,7,76.44,6.94,76.34Z"/><path class="cls-1" d="M6.14,78.91l-.07,0a1.53,1.53,0,0,1,.2.55.94.94,0,0,0,.18-.45L6.11,79Z"/><path class="cls-1" d="M5.75,78.93c.09-.43.27-.6.2-1.07-.2,0-.17.35-.3.53.34-.09-.11.23.11.49a.35.35,0,0,1-.19.1,1.13,1.13,0,0,1,.15.21v0h0c0-.06,0-.09,0-.06h0a.78.78,0,0,1,0-.16c.09.1,0,.11,0,.16a.15.15,0,0,0,0,.07h0L6.07,79C6,78.89,5.91,78.89,5.75,78.93Z"/><path class="cls-1" d="M4.26,76.65a.33.33,0,0,1,0,.1S4.3,76.66,4.26,76.65Z"/><path class="cls-1" d="M4.38,76.92c0,.06-.07.23-.14.18s0-.21,0-.35a.51.51,0,0,0,0,.52l0-.06a1.72,1.72,0,0,1,.23.76A7.42,7.42,0,0,0,4.38,76.92Z"/><path class="cls-1" d="M5.08,77.82l.29-.19-.11-.39v.23C5.1,77.37,5.11,77.65,5.08,77.82Z"/><polygon class="cls-1" points="6.48 79.27 6.41 79.72 6.62 79.09 6.48 79.27"/><polygon class="cls-1" points="6.84 79.24 6.8 79.63 6.91 79.4 6.84 79.24"/><path class="cls-1" d="M27.36,75.85l.09-.1A.28.28,0,0,0,27.36,75.85Z"/><path class="cls-1" d="M26.78,75.78l0,.19C26.78,75.87,26.8,75.79,26.78,75.78Z"/><path class="cls-1" d="M15.62,79.85c.09.38.17,1,.19.52v-.44C15.72,80,15.66,80,15.62,79.85Z"/><path class="cls-1" d="M21.82,77.72l0-.14-.11.41Z"/><path class="cls-1" d="M22,75.93l.14.29A1,1,0,0,0,22,75.93Z"/><path class="cls-1" d="M30.59,75.63l.12-.43C30.57,75.19,30.61,75.42,30.59,75.63Z"/><path class="cls-1" d="M10.51,79.35c.09.18.17.26.24.28C10.64,79.38,10.57,79,10.51,79.35Z"/><path class="cls-1" d="M26.78,80.43a.43.43,0,0,0,.09-.26A.43.43,0,0,0,26.78,80.43Z"/><path class="cls-1" d="M11,79.65l0-.1c-.08.07-.16.12-.24.08C10.82,79.83,10.92,80,11,79.65Z"/><path class="cls-1" d="M42.14,76.86s0,0,0,0S42.15,76.85,42.14,76.86Z"/><path class="cls-1" d="M45.18,81.48a.3.3,0,0,1-.14,0S45.1,81.53,45.18,81.48Z"/><path class="cls-1" d="M8.27,79.54c-.08,0,0,0,0,0Z"/><path class="cls-1" d="M8,77.8a.78.78,0,0,0,0-.21A1.3,1.3,0,0,1,8,77.8Z"/><path class="cls-1" d="M12,77h0C12,76.93,12,77,12,77Z"/><path class="cls-1" d="M8.17,79.33a.47.47,0,0,0,.08.14A.53.53,0,0,0,8.17,79.33Z"/><path class="cls-1" d="M8.17,79.54l-.07-.05C8.09,79.56,8.09,79.61,8.17,79.54Z"/><path class="cls-1" d="M8.37,79.52a.21.21,0,0,1-.12,0,.11.11,0,0,1,0,.07A.22.22,0,0,1,8.37,79.52Z"/><path class="cls-1" d="M35.85,77.55a.06.06,0,0,0,0,0C36,77.42,35.91,77.45,35.85,77.55Z"/><path class="cls-1" d="M17.92,75.51v0h0Z"/><path class="cls-1" d="M18.22,75.2c-.16.53-.22.46-.3.34V76.8Z"/><path class="cls-1" d="M28.77,75.83l-.16-.4c.27-.62.42-.39.29-1-.13,1.35-.76.08-.88,1.43l-.11-.29s.05-.06.08-.05c-.19-.66-.25,1-.55.75a.41.41,0,0,1-.08-.47l-.27.32c-.07,0,0-.27,0-.24l-.38.08v0a6.37,6.37,0,0,1-.29.67c-.08-.2.06-.14.05-.31l-.23.31c-.06-.36.14-.69.28-.62-.1-1.37-.2.32-.56-.5l.21-.15c-.07-.78-.24-.52-.43-1,0,.25.36,1.24.11,1.56-.06-.11-.14-.16-.28.1,0-.48-.09-.37-.24-.35l.05-.64c-.17.17-.18.5-.3.78-.17-.08-.17-.58-.18-1-.28-.12.14.81-.21.91-.22-.27-.41,0-.72.34-.15-.23.06-.39,0-.57l-.18.5s0-.18,0-.25c-.14.18-.06.63-.27.79-.1.7-.32-1.06-.62-.28-.05-.18.05-.38.05-.63a3.63,3.63,0,0,0-.63,1l-.2-.44a2.31,2.31,0,0,1-.35,1.5c0,.23.07.44.1.54l-.33.32a1.51,1.51,0,0,1,.09-.59l-.07.15a1.77,1.77,0,0,1,.1-1c0,.13.05.27.08.4A5.44,5.44,0,0,0,22,76.4a.38.38,0,0,1-.11.17,1.66,1.66,0,0,0,0-.26c0-.07-.05.07-.11.23l0-.72,0,.28-.37-.47c-.34.69-.66,1.73-1.14,2a6.67,6.67,0,0,0,.14-1.47c.08.66.37-.25.6-.1-.12-.08-.07-.37,0-.47l-.46.56c0-.5-.06-.38-.16-.6,0,1-.36.64-.55.93,0-.33.08-.67.28-.58-.17-.76-.38,1.16-.56.5,0,0,.07,0,.11-.12-.14.29-.42,0-.33-.26h.06a.83.83,0,0,0-1.14.76c0-.11.12-1,.15-1.19l-.81,2.81c.11-.72,0-2.47.34-2.86-.07-.11-.16-.24-.35,0a3.27,3.27,0,0,1,0,1.13,5.4,5.4,0,0,0-.31-1.16c.07.16-.11,1.3-.23,1.25,0-.17.07-1.12.13-1.24l-.41,1.1a3.51,3.51,0,0,0,0-1.27c0,.22-.28,0-.37.06l.11.27c-.35-.2-.47,1.55-.83,1.46.06-.22.21-1.41,0-1.57a14.07,14.07,0,0,1-.93,3.15l0-.33-.27.36a34.36,34.36,0,0,1,1.07-3.33c-.12-.27,0-.39-.22-.38a.42.42,0,0,1,.21-.47l-.46-.23c0,.67-.41.64-.43,1.2l.56-.66c0,.68-.44,1.89-.77,1.74a8.92,8.92,0,0,1,.17-1.41c-.06.23-.35.42-.37.25l.17-.35c-.17-.26-.38.87-.55.21-.08,0-.17-.88-.21-.48a22.9,22.9,0,0,1-.21,3.71A5.67,5.67,0,0,1,13,77.39c-.08-.61.3-1.41.23-1.94a1.55,1.55,0,0,1-.14.48c-.07-.17.08-.57-.11-.5-.08.68-.35-.08-.12.57-.19.18-.18-.15-.38-.14A3.66,3.66,0,0,1,12,77.52a2.63,2.63,0,0,0,0-.5c-.36-.09-.52-.41-.85-.44,0-.17-.17-.38-.08-.67-.05.12-.11.34-.22.35-.15-.6.24-.07.14-.79,0,.4-.31.53-.47.76,0,.62.33.14.49-.09a3.55,3.55,0,0,1-.76,2.07c-.29.18-.07-.56-.13-.44-.51-.19-.55,1.44-.93.8a5.62,5.62,0,0,1,.06-1.46c.24-.19.32.37.47.36l-.17-.27c.09-.17.25-.3.32-.14-.11-.49-.87-.16-1.23-.63a.88.88,0,0,0-.18.57l.13-.06c.08.44-.28.58-.14.79-.19.29-.42.75-.64.49v-.61c0,.18.13.37.21.19-.12.27-.3-.85-.47-.06l.14.44c-.2.29-.45.92-.65.71,0,.62,0-.06.15.66-.06-.89.54.07.4-.86.09.83.24.36.39,1.08,0-.2-.05-.39.12-.28,0-.06,0-.13.06-.18v0s0,0,0,0A.79.79,0,0,1,8.09,79c.12-.45.4-.42.52-.65.09.1-.07.23,0,.45l.16-.35c0,.45.23.77,0,1l.22,0c.11.26.29.37.41.19.1.1.31-.48.19-.13l.37-.25v.11c.34.08.77-.69,1.1.15.13-.11.26-.24.44-.09v.39c.16-.13.42.42.52,0,.08,1,.7.28.95.49l.05-.51c.18,0,.36-.09.6-.27l0-.45c.22-.36.47.35.78.33,0,.17-.11.12-.15,0,.29,1,.82-.68,1.1.08.09-.15.15-.09.2,0s0,0,0,0h0a1.86,1.86,0,0,0,.1.25,2.55,2.55,0,0,0-.08-.25.49.49,0,0,0,.27-.15v.48h0c.08.18.09-.22.07-.59a.92.92,0,0,0,.15-.28c0,.78.27-.24.31.59.09-.4.5-.26.61-1.11,0,.11,0,.17,0,.17s.19.21.31,0v.61l.29-.8a1.39,1.39,0,0,1,0,1.06c.39-.7.29-.25.63-1l0,.4c.11,0,.31-.53.35-.2.17.77,1.12.19,1.65.93,0-1.17.24.54.33-.35,0,.27.08.43,0,.67.32-.25.41.47.68-.28,0,.28-.1.4-.08.56,0,0,.11-.23.13-.06s-.06.23-.12.34c.31,0,.41-.87.49-1.66.13.39.21.34.36-.17,0,.26.1.54-.09.62.1,0,.62.43.68-.21,0,.17.14.06.18,0,.23.06.25.12.49.07l-.06-.11c.15-.76.21-.15.41-.23V79c.39.59.2-.25.58.41l0-.48c.11-1,.33.64.61.26l-.07-.28c.16-.34.28,1.43.4,1.57s-.06.14-.1.2c.31.63.09-.62.37-.75,0,.34-.13.86.05.93.06.28.6-1,.79-.39a1,1,0,0,1,.07-.71c.2-.08.44,1,.67.21a.5.5,0,0,1,0,.21c.16-.2.5-.32.62-.76,0,1.67,1-.73.85.79l.45,0,0,.16c.28.12.41-.24.54-.6.06.11,0,.25,0,.33.39.34.43.28.84-.46v.5c.12-.28.54.82,1,.27a.63.63,0,0,1-.07.22c.51-.54,1,1.46,1.3-.33l.34-.42c-.38-.17.12-.78,0-1.09.16-.09.36.57.16.65l0-.09c-.14.93.46.37.4,1,.78,0,1.49.58,2.21.68l0-.74.25.06c.05.18.05.58-.13.54.06.42.33-.33.34-.49.33.33-.2.85-.09.87l.15,0,0-.09c.14-.29.18-.6.39-.55s0,.45.09.48,0,.08.08,0l.31.09-.08-.59c.16-.27.3.06.2-.61.14,1,1.16.45,1.27.77.22-.4.42-.38.66-.31-.05-.12,0-.77.16-.68-.18,1.33.34.61.43,1.58-.1-.65.61-.11.44-1,.16.12,0,.5.08.82.45-.48.89.41,1.41.27a1.65,1.65,0,0,1,.08-.7l.21.89c.11-.07.17-1,.31-.38,0-.15,0-.37,0-.42.94.93,2.1-.55,3,1.13-.11-.35,0-.38.09-.38-.06-.09,0-.43,0-.67l.37.69c.13-.65.46,0,.56-.64l-.15.11c.24-.74-.12-1.68,0-2.63-.26.83-.43-1.29-.85-.11-.06-.2.08-.3.06-.53-.11.41-.22.49-.39.29l0-.1c-.54.06-.73-.36-1.3-.67v.47c-.12-.07-.14-.22-.19-.34-.2.7.35.06.16.84-.09-1-.89-.08-.92-1.18-.2,0,0,.55-.18.53l0-.3-.08.38c-.12-.07-.16-.45-.14-.7,0,0,.09-.06.13-.08-.14-.36-.48.08-.53,0l.17.2c-.55.24-1.17-.2-1.73.36l0,.23c-.43.38-.3-.27-.74-.11l0,0c-.11.21-.23.32-.35.28.13-.25-.16-.52,0-.8-.46.41-.24.33-.58,1.14l0-.37c-.12.32-.14.5-.36.58.2-.31-.09-.58.13-1-.39-.84-.73.77-.85-.43-.28,1,.35.6.22.81.07.34-.23.75-.36.63S37,77,36.66,77c0,0,0-.07.08-.06-.12-.27-.3.33-.43-.11-.14.62-.21,0-.3.74l.35-.16c-.21.19-.45,1.1-.73.63a1.7,1.7,0,0,1,.22-.47c-.08-.24-.19.14-.27-.1.09-.79.42-.15.67-.73-.08-.34-.43.54-.26-.31-.23,1.08-.35-.16-.66.65l.05-.47c0,.07-.14.29-.21.27l.18-.6c-.24.51-.35-.49-.56-.22.4,0,0,.58.19.94-.54.59-.19-1.26-.76-1.08.08-.06.26.31.12.52a1.18,1.18,0,0,1-.26-.55c-.38.07,0,.49-.16.77-.08-.59-.2.22-.37.39l0-.48c-.39-.34-.18,1-.53.59l.21-.65-.21.16.08-.55c-.24.39-.3.28-.5.11,0,.35-.09.87-.28.88-.1-.3.11-.46-.16-.41.08-.29.18-.67.26-.22,0-.15.08-.29.1-.45-.11-.34-.33-.1-.43-.1a.18.18,0,0,1,.1.12l-.43.64a.67.67,0,0,1,.07-.47c-.08,0-.15.27-.27.3a2,2,0,0,1,.26-1l-.4.41c0-.17-.15-.48-.09-.62-.18-.24-.55.72-.79.4a.44.44,0,0,1-.11.2c-.25-.11-.43-.61-.77-.09l-.11-.72c-.24.14.16.9-.25,1.14s0-.61-.13-.81c-.17.34-.46,1-.66.46C28.63,75.77,28.69,75.88,28.77,75.83Zm-2.88.1c.06-.1.2-.4.22-.11C26,76.36,26,76.09,25.89,75.93Zm-4.43.83c.06-.15.11-.07.17.12C21.58,76.91,21.52,76.89,21.46,76.76ZM9.13,79.21v0C9.24,79.38,9.2,79.3,9.13,79.21ZM8.89,79a.28.28,0,0,0,0,.2c0-.12.08-.13.14-.09C9,79,9,78.88,8.89,79Zm27.52,1.87,0-.13C36.49,80.59,36.45,80.71,36.41,80.85Z"/><path class="cls-1" d="M22,76.14v.26A.39.39,0,0,0,22,76.14Z"/><path class="cls-1" d="M30.56,75.71h0s0-.06,0-.09Z"/><path class="cls-1" d="M13.16,75.2a.53.53,0,0,1,.08.25C13.25,75.33,13.24,75.23,13.16,75.2Z"/><path class="cls-1" d="M7.47,79.69l.17-.11c-.08,0-.1-.09-.14-.17C7.5,79.52,7.52,79.69,7.47,79.69Z"/><path class="cls-1" d="M6.26,76.61c0,.06,0,0-.07.06v.22C6.28,76.89,6.36,76.71,6.26,76.61Z"/><path class="cls-1" d="M7.43,78.08c0-.4-.09-.27-.21-.21h0C7.16,78.44,7.3,78.26,7.43,78.08Z"/><path class="cls-1" d="M7.19,77.89a.14.14,0,0,1-.11,0C7.05,78.11,7.12,77.94,7.19,77.89Z"/><path class="cls-1" d="M8.54,79.22c0-.11-.07.52-.09.35C8.35,80.08,8.86,79,8.54,79.22Z"/><polygon class="cls-1" points="7.44 76.74 7.45 77.25 7.54 76.85 7.44 76.74"/><path class="cls-1" d="M8.32,77.18,8.15,77a.27.27,0,0,1-.06.16C8.2,77.22,8.31,77.33,8.32,77.18Z"/><path class="cls-1" d="M8.09,77.19a.14.14,0,0,0-.16.07A.23.23,0,0,0,8.09,77.19Z"/><polygon class="cls-1" points="7.7 76.61 7.75 76.72 7.88 76.77 7.7 76.61"/><path class="cls-1" d="M10.29,77.42l.21-.13c0-.17,0-.27-.09-.21S10.27,77.25,10.29,77.42Z"/><path class="cls-1" d="M9.78,76a1.07,1.07,0,0,1,.06.39l.06-.62Z"/><path class="cls-1" d="M10.38,75.91c0-.17.33-.47.07-.45C10.42,75.63,10.21,75.75,10.38,75.91Z"/><polygon class="cls-1" points="13.34 76.92 13.29 76.92 13.22 77.94 13.34 76.92"/><path class="cls-1" d="M16.19,74.69c-.22-.26-.11.62-.3.3-.07.24.16.26.09.46C16.14,75.21,16.2,75.36,16.19,74.69Z"/><path class="cls-1" d="M16,75.45a1,1,0,0,0-.09.15A.49.49,0,0,0,16,75.45Z"/><polygon class="cls-1" points="45.7 82.06 45.84 82.29 45.76 81.94 45.7 82.06"/><path class="cls-1" d="M46.05,81.33V82l.13-.58S46.06,81.48,46.05,81.33Z"/><path class="cls-1" d="M25.56,74.59l0,.16c0,.17.05.18.12.22Z"/><polygon class="cls-1" points="27.6 75.23 27.56 75.22 27.59 75.81 27.6 75.23"/><path class="cls-1" d="M29.39,74.62c-.07,0-.16.09-.23.06C29.32,74.59,29.36,75.35,29.39,74.62Z"/><path class="cls-1" d="M2.65,103c-.07,0,0,.38.05.46C2.79,103.38,2.62,102.94,2.65,103Z"/><polygon class="cls-1" points="3.54 101.86 3.56 102.03 3.62 101.59 3.54 101.86"/><path class="cls-1" d="M4.57,101.64c-.26-.68-.35.19-.59,0l-.07-.15,0,.58C4.16,101.92,4.36,101.48,4.57,101.64Z"/><path class="cls-1" d="M5.46,103c-.1-.27.06-.26-.15-.06l0,.06Z"/><path class="cls-1" d="M5.35,103c-.11,0,.12.22,0,0Z"/><path class="cls-1" d="M5.81,102.76l-.09.27c.07.15.21.16.19.29C6,103.15,6,103,5.81,102.76Z"/><path class="cls-1" d="M5.83,102.22l0,.12C5.81,102.4,5.83,102.42,5.83,102.22Z"/><path class="cls-1" d="M5.67,102.59l.11-.25c0-.11-.1-.34,0,.09C5.69,102.22,5.71,102.43,5.67,102.59Z"/><path class="cls-1" d="M5.56,102.5c-.11-.13-.24-.2-.15-.48C5.16,102.18,5.31,102.66,5.56,102.5Z"/><path class="cls-1" d="M4.45,100.9l-.15-.17,0,.25C4.28,100.85,4.51,101.12,4.45,100.9Z"/><path class="cls-1" d="M6.78,102.91c0-.15-.14-.38-.19-.57l-.07.2A.75.75,0,0,1,6.78,102.91Z"/><path class="cls-1" d="M6.59,102.34l.1-.29C6.54,102.05,6.54,102.18,6.59,102.34Z"/><polygon class="cls-1" points="5.68 101.44 5.54 102.03 5.73 101.42 5.68 101.44"/><polygon class="cls-1" points="7.39 102.79 7.38 103.16 7.42 102.6 7.39 102.79"/><path class="cls-1" d="M7.77,102.64c0,.3.2.46.17.65.1-.07.14-.34.17-.58C8.05,102.86,8,102.85,7.77,102.64Z"/><path class="cls-1" d="M8.18,102.36a1.94,1.94,0,0,0-.07.35A1,1,0,0,0,8.18,102.36Z"/><path class="cls-1" d="M7,102.06a1.06,1.06,0,0,0,.22.4l-.15-.4Z"/><path class="cls-1" d="M7,102v0H7Z"/><path class="cls-1" d="M7,102.07H7S7,102,7,102.07Z"/><path class="cls-1" d="M6.18,101.72c0-.25.17-.55-.09-.86C6.08,101.16,6.24,101.34,6.18,101.72Z"/><path class="cls-1" d="M6.76,101.56l-.19,0a1,1,0,0,1,.08.38Z"/><polygon class="cls-1" points="6.81 101.41 6.76 101.56 6.83 101.58 6.81 101.41"/><path class="cls-1" d="M7.8,102a.32.32,0,0,1,.19-.28.47.47,0,0,0-.32-.06C7.69,101.83,7.7,102.08,7.8,102Z"/><path class="cls-1" d="M7.42,102s0,0,0,0S7.4,101.93,7.42,102Z"/><path class="cls-1" d="M8.87,101.56l0-.07s0,.05,0,.07Z"/><path class="cls-1" d="M7.64,101.63c-.09-.07-.11,0-.12.18a.33.33,0,0,1,.15-.11C7.66,101.64,7.66,101.6,7.64,101.63Z"/><path class="cls-1" d="M8.38,102.11a1.8,1.8,0,0,0-.18-.2C8.27,102,8.39,102.22,8.38,102.11Z"/><path class="cls-1" d="M7.48,102.09v0C7.52,102.19,7.5,102.15,7.48,102.09Z"/><path class="cls-1" d="M7.48,102.09a1.88,1.88,0,0,0,0-.28.39.39,0,0,0-.09.17Z"/><path class="cls-1" d="M8.52,98.83c.08.38,0,.78-.29.41a6.13,6.13,0,0,0,.61,2.25.83.83,0,0,1,0-.59c-.1-.2-.48-.41-.42-.79s.21.09.36.27c-.2-.46.12-.76-.09-1.46l-.13.29C8.57,99.11,8.6,98.91,8.52,98.83Z"/><path class="cls-1" d="M8.51,101.52l0,.06c.09,0,.18.19.35.47a1,1,0,0,0,0-.49l-.35,0Z"/><path class="cls-1" d="M8.15,101.66c0-.44.08-.65-.12-1.08-.2.07-.06.38-.14.59.3-.18,0,.25.25.44a.42.42,0,0,1-.15.15,1.37,1.37,0,0,1,.21.15v0h0s0-.08,0,0h0c0-.06,0-.11,0-.16s0,.1,0,.16a.13.13,0,0,1,0,.06h0l.27-.31C8.37,101.54,8.29,101.57,8.15,101.66Z"/><path class="cls-1" d="M6.05,99.92a.16.16,0,0,1,0,.09C6.09,100,6.09,99.92,6.05,99.92Z"/><path class="cls-1" d="M6.24,100.14c0,.06,0,.24-.08.21s0-.2-.08-.34a.49.49,0,0,0,.1.51v-.06a1.71,1.71,0,0,1,.44.66A6.9,6.9,0,0,0,6.24,100.14Z"/><path class="cls-1" d="M7.18,100.79l.22-.27-.22-.33.06.22C7.07,100.36,7.16,100.62,7.18,100.79Z"/><polygon class="cls-1" points="8.95 101.76 9.01 102.21 9.03 101.55 8.95 101.76"/><polygon class="cls-1" points="9.28 101.63 9.36 102.02 9.4 101.77 9.28 101.63"/><path class="cls-1" d="M27.88,92.34l.06-.12A.34.34,0,0,0,27.88,92.34Z"/><path class="cls-1" d="M27.31,92.45l0,.19C27.34,92.53,27.33,92.45,27.31,92.45Z"/><path class="cls-1" d="M17.84,99.63c.2.33.46.86.34.43l-.13-.41C18,99.74,17.92,99.71,17.84,99.63Z"/><path class="cls-1" d="M23.14,95.76a.75.75,0,0,0-.07-.12c0,.15,0,.29,0,.42C23.1,96,23.12,95.87,23.14,95.76Z"/><path class="cls-1" d="M22.82,94l.21.24A.79.79,0,0,0,22.82,94Z"/><path class="cls-1" d="M30.9,91.18v-.45C30.75,90.77,30.86,91,30.9,91.18Z"/><path class="cls-1" d="M12.82,100.66a.57.57,0,0,0,.31.2C13,100.64,12.77,100.3,12.82,100.66Z"/><path class="cls-1" d="M28.68,96.88a.41.41,0,0,0,0-.27A.41.41,0,0,0,28.68,96.88Z"/><path class="cls-1" d="M13.41,100.79a.71.71,0,0,0-.07-.09c-.06.09-.12.16-.21.16C13.26,101,13.38,101.1,13.41,100.79Z"/><path class="cls-1" d="M42.3,89l0,0S42.31,88.93,42.3,89Z"/><path class="cls-1" d="M46.57,92.46a.27.27,0,0,1-.13.07S46.51,92.54,46.57,92.46Z"/><path class="cls-1" d="M10.73,101.49c-.07.05,0,.05,0,0Z"/><path class="cls-1" d="M10,99.9a1,1,0,0,0,0-.21A1,1,0,0,1,10,99.9Z"/><path class="cls-1" d="M13.55,98h0C13.52,97.91,13.52,97.93,13.55,98Z"/><path class="cls-1" d="M10.57,101.33a.57.57,0,0,0,.13.1A.38.38,0,0,0,10.57,101.33Z"/><path class="cls-1" d="M10.64,101.52l-.08,0C10.57,101.57,10.59,101.61,10.64,101.52Z"/><path class="cls-1" d="M10.83,101.45a.2.2,0,0,1-.13,0,.15.15,0,0,1,0,.06Z"/><path class="cls-1" d="M36.49,91.47l0,0C36.55,91.31,36.52,91.34,36.49,91.47Z"/><path class="cls-1" d="M18.77,94.8s0,0,0,0h0Z"/><path class="cls-1" d="M19,94.42c0,.55-.07.5-.18.41l.36,1.2Z"/><path class="cls-1" d="M29.22,91.91,29,91.57c.08-.67.29-.5,0-1,.27,1.33-.7.3-.42,1.63L28.34,92s0-.08.07-.07c-.39-.58,0,1-.31.88a.43.43,0,0,1-.22-.43l-.16.39c-.08,0-.11-.25,0-.24l-.34.19v0a6.31,6.31,0,0,1-.08.72c-.14-.17,0-.15-.05-.31l-.13.37c-.16-.33-.07-.7.09-.68-.5-1.28-.1.37-.68-.31l.15-.21c-.29-.73-.38-.42-.7-.84.1.24.7,1.08.56,1.46-.09-.08-.18-.11-.24.18-.11-.47-.2-.33-.34-.27l-.13-.62c-.11.21,0,.53-.06.83-.19,0-.33-.5-.47-.89-.3,0,.37.73.07.92-.29-.19-.39.11-.58.54-.21-.18-.06-.39-.16-.55l0,.53s-.06-.16-.07-.24c-.08.22.13.63,0,.84.1.7-.63-.91-.68-.08-.1-.16-.06-.39-.14-.63a4,4,0,0,0-.3,1.19L23,94.23a2.22,2.22,0,0,1,.11,1.53c.11.21.2.4.26.49l-.22.4a1.46,1.46,0,0,1-.09-.59,1.11,1.11,0,0,0,0,.17,1.68,1.68,0,0,1-.19-1l.19.36a5.78,5.78,0,0,0-.13-1.19.43.43,0,0,1-.06.19,1.3,1.3,0,0,0,0-.26c0-.07,0,.08,0,.25L22.58,94l0,.28-.48-.35c-.12.77-.13,1.85-.51,2.24a5.88,5.88,0,0,0-.3-1.44c.27.61.28-.35.54-.28-.13,0-.17-.33-.16-.44l-.28.68c-.1-.5-.17-.35-.32-.53.3,1-.16.72-.26,1.06-.08-.33-.12-.67.1-.64-.39-.69,0,1.21-.39.64.05,0,.09,0,.07-.15-.05.32-.38.15-.38-.15l0,0a.83.83,0,0,0-.86,1.07c0-.11-.18-1-.2-1.19l.05,2.93c-.11-.73-.7-2.38-.52-2.84-.1-.09-.22-.18-.33.11A3.21,3.21,0,0,1,18.74,96a5,5,0,0,0-.64-1c.12.13.28,1.27.15,1.26,0-.17-.26-1.1-.24-1.23l-.07,1.17A3.53,3.53,0,0,0,17.6,95c.09.2-.27,0-.33.17l.19.22c-.39-.08,0,1.62-.37,1.65,0-.24-.21-1.42-.42-1.52a14,14,0,0,1,0,3.29l-.13-.31-.16.42c0-.88,0-2.75,0-3.5-.19-.22-.12-.37-.32-.29a.42.42,0,0,1,.06-.51l-.5-.09c.17.65-.21.74-.07,1.28L16,95c.17.65.14,1.93-.22,1.89a9,9,0,0,1-.26-1.4c0,.24-.21.5-.28.35l.06-.38c-.24-.21-.1.94-.46.36-.09,0-.42-.79-.35-.4a22.11,22.11,0,0,1,.9,3.61,6.29,6.29,0,0,1-.74-1c-.26-.55-.13-1.44-.35-1.92a1.37,1.37,0,0,1,0,.5c-.11-.14-.09-.56-.24-.44.12.67-.37,0,0,.58-.12.23-.21-.1-.4,0a3.63,3.63,0,0,1,0,1.73,2.43,2.43,0,0,0-.16-.48c-.36,0-.62-.24-.94-.17-.07-.16-.27-.32-.27-.62,0,.13,0,.37-.1.4-.33-.53.2-.14-.11-.79.08.39-.13.59-.22.86.18.59.35,0,.44-.23a3.58,3.58,0,0,1-.11,2.2c-.22.26-.24-.51-.26-.38-.54,0-.1,1.53-.66,1A6.16,6.16,0,0,1,11,98.89c.18-.25.42.25.56.2l-.24-.21c0-.19.15-.36.26-.22-.25-.44-.87.1-1.36-.24a1,1,0,0,0,0,.6l.11-.11c.21.4-.1.64.1.8-.09.34-.17.85-.46.66l-.18-.59c0,.18.23.33.26.13,0,.29-.54-.73-.47.08l.26.38c-.1.33-.16,1-.41.87.23.57,0-.08.34.58-.33-.83.53-.08.12-.94.33.77.34.28.69.92,0-.2-.15-.36,0-.3v-.19s0,0,0,0a1.06,1.06,0,0,1-.15-.28c0-.47.26-.52.3-.78.12.07,0,.24.11.44l.06-.39c.11.44.44.67.26,1l.22,0c.18.22.38.27.45.06.12.08.15-.54.14-.18l.28-.35,0,.11c.35,0,.53-.88,1.1-.18.09-.13.17-.3.39-.22l.13.37c.11-.16.52.28.49-.13.39,1,.76.07,1.06.19l-.1-.5c.18,0,.32-.19.49-.44l-.11-.43c.1-.41.55.2.84.08,0,.18-.07.15-.14.06.58.91.58-.89,1.07-.24.05-.18.12-.14.2,0s0,0,0,0,0,0,0,0l.16.21a.92.92,0,0,0-.14-.21.53.53,0,0,0,.21-.23l.14.46s0,0,0,0c.13.15,0-.24-.11-.58a1.31,1.31,0,0,0,.06-.31c.25.74.19-.31.47.47,0-.41.4-.4.26-1.24,0,.1.07.15,0,.17.12.07.25.14.29-.12l.18.59,0-.85a1.37,1.37,0,0,1,.29,1c.17-.78.21-.33.33-1.09l.07.39c.1,0,.14-.59.27-.29.39.68,1.13-.15,1.85.4-.37-1.11.39.45.21-.44.09.27.21.4.17.65.23-.33.53.33.57-.46.09.26,0,.41.09.56,0-.06,0-.25.11-.1a.55.55,0,0,1,0,.36c.28-.11.13-.94,0-1.73.23.34.3.27.29-.27.11.24.26.49.1.62.11,0,.72.23.59-.39.07.15.15,0,.16-.07.25,0,.28,0,.5-.08l-.09-.08c-.08-.78.15-.21.32-.35v.08c.55.45.12-.3.68.22l-.13-.46c-.19-1,.51.51.67.07l-.15-.25c.05-.37.68,1.28.84,1.38s0,.15,0,.22c.49.52-.09-.62.14-.82.12.32.13.85.32.88.14.24.26-1.19.64-.61a1,1,0,0,1-.14-.71c.16-.13.72.85.7,0a.52.52,0,0,1,.08.19c.1-.24.38-.45.37-.9.5,1.58.7-1,1,.5l.42-.18,0,.16c.3,0,.32-.35.33-.73a.51.51,0,0,1,.09.32c.47.21.5.13.67-.69l.15.48c0-.3.76.62,1,0a.54.54,0,0,1,0,.22c.32-.67,1.39,1.1,1.15-.7l.2-.5c-.42,0-.12-.78-.35-1,.13-.14.51.44.35.57l0-.08c.14.93.55.22.68.84.75-.22,1.6.12,2.31,0l-.24-.69.26,0c.1.15.21.54,0,.55.18.38.22-.4.19-.56.41.21,0,.86.16.85l.13-.08-.05-.08c.05-.32,0-.63.21-.64s.17.42.23.44,0,.07.08,0h.33l-.26-.53c.08-.31.3,0,0-.65.44.94,1.24.09,1.44.37.1-.46.29-.49.54-.5-.09-.1-.27-.72,0-.69.22,1.32.5.48.88,1.38-.29-.59.54-.29.11-1.12.19.07.12.49.32.77.29-.6,1,.12,1.42-.16a1.76,1.76,0,0,1-.12-.7l.46.8c.08-.11-.14-1,.18-.46-.06-.14-.15-.34-.1-.41,1.17.61,1.85-1.15,3.2.2-.21-.3-.13-.36,0-.39-.09-.07-.1-.43-.16-.66l.56.55c-.07-.66.44-.14.34-.77l-.11.14c0-.76-.61-1.56-.8-2.5,0,.87-.8-1.11-.85.15-.11-.17,0-.31-.09-.52,0,.42-.07.52-.3.39V89.2c-.49.22-.8-.13-1.43-.26l.14.45c-.13,0-.19-.17-.28-.27,0,.73.36,0,.41.76-.38-.9-.88.19-1.23-.86-.2,0,.17.53,0,.56l-.11-.27,0,.38c-.14,0-.28-.38-.34-.62,0,0,.07-.09.1-.12-.24-.3-.43.22-.51.12l.22.14c-.46.39-1.18.15-1.55.85l.09.21c-.29.49-.36-.17-.74.12v-.06c0,.24-.12.37-.24.37,0-.28-.31-.45-.24-.76-.31.53-.13.39-.22,1.26L39,90.85c0,.35,0,.52-.18.67.1-.35-.26-.52-.16-1-.62-.69-.47.95-.94-.16,0,1.05.51.47.45.71.17.3,0,.78-.16.72s-.53-1.23-.88-1.13c0,0,0-.08.06-.08-.2-.23-.19.4-.44,0,0,.63-.22,0-.07.8l.28-.26c-.14.25-.1,1.19-.51.82a2,2,0,0,1,.07-.51c-.14-.21-.13.19-.28,0-.15-.78.36-.26.42-.89-.17-.3-.25.65-.34-.21.1,1.09-.38-.06-.43.81l-.09-.47c0,.08-.05.32-.13.32v-.62c-.07.55-.47-.37-.6,0,.39-.1.22.54.46.84-.34.73-.55-1.14-1-.8.06-.08.34.22.27.46a1.23,1.23,0,0,1-.42-.45c-.33.18.17.46.08.78-.25-.53-.12.27-.24.49L34,91.18c-.47-.21.12,1-.33.72v-.69l-.16.22-.08-.55c-.12.45-.2.36-.44.25.12.32.17.86,0,.92-.19-.25,0-.46-.27-.34,0-.3,0-.69.18-.28,0-.16,0-.31,0-.46-.2-.29-.35,0-.44,0a.16.16,0,0,1,.13.08l-.23.74a.79.79,0,0,1-.07-.47c-.06.07-.06.3-.16.36-.06-.38-.16-.78,0-1l-.26.5c-.06-.16-.28-.41-.27-.56-.25-.18-.31.85-.64.61a.42.42,0,0,1-.05.22c-.26,0-.59-.45-.75.14L29.79,91c-.2.21.41.82.1,1.16s-.24-.56-.37-.73c-.06.37-.13,1.13-.5.63C29.07,91.89,29.16,92,29.22,91.91Zm-2.72.94c0-.11.07-.44.18-.17C26.74,93.23,26.63,93,26.5,92.85Zm-4,2.1c0-.16.08-.1.2.06C22.67,95.06,22.61,95.06,22.52,95Zm-11.07,6v0C11.62,101.06,11.56,101,11.45,100.93Zm-.29-.15a.35.35,0,0,0,0,.2c0-.13,0-.15.12-.13S11.21,100.66,11.16,100.78ZM38,94.45l-.08-.11C38,94.18,38,94.31,38,94.45Z"/><path class="cls-1" d="M22.85,94.2a1.45,1.45,0,0,1,.09.25A.35.35,0,0,0,22.85,94.2Z"/><path class="cls-1" d="M30.9,91.27h0a.28.28,0,0,0,0-.09Z"/><path class="cls-1" d="M14.12,95.9a.69.69,0,0,1,.16.22C14.26,96,14.21,95.92,14.12,95.9Z"/><path class="cls-1" d="M10,101.88l.13-.16c-.07,0-.12,0-.17-.12C10,101.71,10.06,101.86,10,101.88Z"/><path class="cls-1" d="M8,99.29c0,.06,0,0-.06.08l0,.22A.18.18,0,0,0,8,99.29Z"/><path class="cls-1" d="M9.51,100.35c-.11-.39-.18-.23-.27-.13s0,0,0,0C9.35,100.77,9.43,100.56,9.51,100.35Z"/><path class="cls-1" d="M9.22,100.23s-.07,0-.11,0C9.15,100.49,9.17,100.3,9.22,100.23Z"/><path class="cls-1" d="M10.9,101.11c-.08-.09.08.52,0,.36C11,102,11.13,100.78,10.9,101.11Z"/><polygon class="cls-1" points="9.12 99.07 9.27 99.55 9.24 99.14 9.12 99.07"/><path class="cls-1" d="M10.09,99.23l-.21-.1a.26.26,0,0,1,0,.18C10,99.3,10.12,99.37,10.09,99.23Z"/><path class="cls-1" d="M9.87,99.31a.12.12,0,0,0-.13.11A.24.24,0,0,0,9.87,99.31Z"/><polygon class="cls-1" points="9.33 98.87 9.41 98.96 9.54 98.96 9.33 98.87"/><path class="cls-1" d="M12,98.88l.16-.19c0-.17-.09-.26-.15-.18S12,98.72,12,98.88Z"/><path class="cls-1" d="M11.14,97.68a1,1,0,0,1,.17.35l-.13-.61Z"/><path class="cls-1" d="M11.68,97.4c0-.17.17-.54-.07-.45C11.63,97.12,11.47,97.31,11.68,97.4Z"/><polygon class="cls-1" points="14.81 97.5 14.76 97.52 14.99 98.51 14.81 97.5"/><path class="cls-1" d="M16.87,94.53c-.29-.19.08.62-.2.37,0,.25.23.21.22.42C17,95,17.08,95.16,16.87,94.53Z"/><path class="cls-1" d="M16.89,95.32a1.46,1.46,0,0,0,0,.17A.45.45,0,0,0,16.89,95.32Z"/><polygon class="cls-1" points="47.24 92.87 47.43 93.05 47.26 92.73 47.24 92.87"/><path class="cls-1" d="M47.35,92.07l.18.62,0-.59S47.41,92.21,47.35,92.07Z"/><path class="cls-1" d="M25.8,91.67l0,.16c.06.16.1.16.17.17Z"/><polygon class="cls-1" points="27.93 91.68 27.89 91.68 28.09 92.23 27.93 91.68"/><path class="cls-1" d="M29.46,90.56c-.07,0-.12.14-.2.13C29.39,90.56,29.64,91.27,29.46,90.56Z"/></g></g></svg>