<svg xmlns="http://www.w3.org/2000/svg" viewBox="0 0 14.26 14.26"><defs><style>.cls-1{fill:#127bb7;}.cls-2{fill:#fff;}</style></defs><title>Asset 30</title><g id="Layer_2" data-name="Layer 2"><g id="Layer_1-2" data-name="Layer 1"><path class="cls-1" d="M7.13,14.26h0A7.13,7.13,0,0,1,0,7.13H0A7.13,7.13,0,0,1,7.13,0h0a7.13,7.13,0,0,1,7.13,7.13h0A7.13,7.13,0,0,1,7.13,14.26Z"/><rect class="cls-2" x="3.9" y="5.54" width="1.48" height="4.77"/><path class="cls-2" d="M4.63,4.92A.88.88,0,1,0,3.76,4,.88.88,0,0,0,4.63,4.92Z"/><path class="cls-2" d="M7.73,7.81c0-.67.31-1.07.9-1.07s.81.38.81,1.07v2.5H10.9v-3A1.66,1.66,0,0,0,9.17,5.4a1.67,1.67,0,0,0-1.44.78V5.54H6.32v4.77H7.73Z"/></g></g></svg>