<svg xmlns="http://www.w3.org/2000/svg" viewBox="0 0 14.26 14.26"><defs><style>.cls-1{fill:#cc202a;}.cls-2{fill:#fff;}</style></defs><title>Asset 32</title><g id="Layer_2" data-name="Layer 2"><g id="Layer_1-2" data-name="Layer 1"><path class="cls-1" d="M7.13,14.26h0A7.13,7.13,0,0,1,0,7.13H0A7.13,7.13,0,0,1,7.13,0h0a7.13,7.13,0,0,1,7.13,7.13h0A7.13,7.13,0,0,1,7.13,14.26Z"/><path class="cls-2" d="M4.85,7.79a.16.16,0,0,0,.24-.12c0-.08.08-.3.1-.39A.24.24,0,0,0,5.12,7a1.43,1.43,0,0,1-.32-1A2.31,2.31,0,0,1,7.2,3.73a1.82,1.82,0,0,1,2,1.86c0,1.4-.62,2.59-1.54,2.59a.76.76,0,0,1-.77-.94,10.08,10.08,0,0,0,.43-1.73.65.65,0,0,0-.66-.73c-.52,0-.93.54-.93,1.26a1.92,1.92,0,0,0,.15.77s-.53,2.26-.63,2.65a5.67,5.67,0,0,0,0,1.85.07.07,0,0,0,.12,0,5.42,5.42,0,0,0,.87-1.59L6.6,8.41A1.4,1.4,0,0,0,7.78,9c1.57,0,2.63-1.43,2.63-3.34A2.9,2.9,0,0,0,7.33,2.9a3.22,3.22,0,0,0-3.48,3A1.86,1.86,0,0,0,4.85,7.79Z"/></g></g></svg>