<svg xmlns="http://www.w3.org/2000/svg" viewBox="0 0 14.26 14.26"><defs><style>.cls-1{fill:#2aa7df;}.cls-2{fill:#fff;}</style></defs><title>Asset 27</title><g id="Layer_2" data-name="Layer 2"><g id="Layer_1-2" data-name="Layer 1"><path class="cls-1" d="M7.13,14.26h0A7.13,7.13,0,0,1,0,7.13H0A7.13,7.13,0,0,1,7.13,0h0a7.13,7.13,0,0,1,7.13,7.13h0A7.13,7.13,0,0,1,7.13,14.26Z"/><path class="cls-2" d="M3.33,9.52a4.43,4.43,0,0,0,6.82-3.94,3,3,0,0,0,.78-.81A3,3,0,0,1,10,5a1.58,1.58,0,0,0,.68-.86,3,3,0,0,1-1,.38A1.53,1.53,0,0,0,8.59,4,1.57,1.57,0,0,0,7.07,6,4.46,4.46,0,0,1,3.86,4.33a1.56,1.56,0,0,0,.48,2.08,1.66,1.66,0,0,1-.7-.19A1.55,1.55,0,0,0,4.89,7.76a1.53,1.53,0,0,1-.71,0A1.56,1.56,0,0,0,5.64,8.87,3.11,3.11,0,0,1,3.33,9.52Z"/></g></g></svg>