<svg xmlns="http://www.w3.org/2000/svg" viewBox="0 0 52.45 40.96"><defs><style>.cls-1{fill:#153641;}</style></defs><title>Asset 24</title><g id="Layer_2" data-name="Layer 2"><g id="Layer_1-2" data-name="Layer 1"><path class="cls-1" d="M4.05,4.82A.77.77,0,0,0,4.6,3.51.77.77,0,1,0,3.51,4.6.77.77,0,0,0,4.05,4.82Z"/><path class="cls-1" d="M6.52,4.82a.77.77,0,0,0,.54-.22.76.76,0,0,0,0-1.09.78.78,0,0,0-.54-.23A.83.83,0,0,0,6,3.51.79.79,0,0,0,6,4.6.82.82,0,0,0,6.52,4.82Z"/><path class="cls-1" d="M9,4.82a.82.82,0,0,0,.55-.22.79.79,0,0,0,0-1.09A.83.83,0,0,0,9,3.28a.78.78,0,0,0-.54.23.76.76,0,0,0,0,1.09A.77.77,0,0,0,9,4.82Z"/><path class="cls-1" d="M12.27,4.82h31.2a.77.77,0,1,0,0-1.54H12.27a.77.77,0,0,0,0,1.54Z"/><path class="cls-1" d="M46.76,4.82H48.4a.77.77,0,1,0,0-1.54H46.76a.77.77,0,0,0,0,1.54Z"/><path class="cls-1" d="M45.11,11.5H30.33a2.41,2.41,0,0,0-2.41,2.41V14h-.87a2.41,2.41,0,0,0-2.41,2.41V23H22.89V20.48a2.41,2.41,0,0,0-2.41-2.41H7.34a2.41,2.41,0,0,0-2.41,2.41v6.57a2.41,2.41,0,0,0,2.41,2.41H20.48a2.41,2.41,0,0,0,2.41-2.41V24.53h1.75v6.62a2.42,2.42,0,0,0,2.41,2.42h.87v0A2.41,2.41,0,0,0,30.33,36H45.11a2.42,2.42,0,0,0,2.42-2.41V32a2.43,2.43,0,0,0-2.42-2.42H30.33A2.42,2.42,0,0,0,27.92,32V32h-.87a.87.87,0,0,1-.87-.88V24.53h1.74v0A2.42,2.42,0,0,0,30.33,27H45.11a2.43,2.43,0,0,0,2.42-2.42V22.94a2.42,2.42,0,0,0-2.42-2.41H30.33a2.41,2.41,0,0,0-2.41,2.41v0H26.18V16.37a.87.87,0,0,1,.87-.87h.87v.05A2.41,2.41,0,0,0,30.33,18H45.11a2.42,2.42,0,0,0,2.42-2.41V13.91A2.42,2.42,0,0,0,45.11,11.5ZM21.35,27.05a.87.87,0,0,1-.87.87H7.34a.87.87,0,0,1-.87-.87V20.48a.87.87,0,0,1,.87-.87H20.48a.87.87,0,0,1,.87.87ZM29.46,32a.87.87,0,0,1,.87-.88H45.11A.87.87,0,0,1,46,32v1.64a.87.87,0,0,1-.88.87H30.33a.87.87,0,0,1-.87-.87Zm0-9a.87.87,0,0,1,.87-.87H45.11a.87.87,0,0,1,.88.87v1.64a.87.87,0,0,1-.88.88H30.33a.87.87,0,0,1-.87-.88ZM46,15.55a.87.87,0,0,1-.88.87H30.33a.87.87,0,0,1-.87-.87V13.91a.87.87,0,0,1,.87-.87H45.11a.87.87,0,0,1,.88.87Z"/><path class="cls-1" d="M48.4,0H4.05A4.06,4.06,0,0,0,0,4.05V36.9A4.06,4.06,0,0,0,4.05,41H48.4a4.06,4.06,0,0,0,4.05-4.06V4.05A4.06,4.06,0,0,0,48.4,0ZM4.05,1.54H48.4a2.51,2.51,0,0,1,2.51,2.51V6.57H1.54V4.05A2.52,2.52,0,0,1,4.05,1.54ZM48.4,39.42H4.05A2.52,2.52,0,0,1,1.54,36.9V8.11H50.91V36.9A2.51,2.51,0,0,1,48.4,39.42Z"/></g></g></svg>