<svg xmlns="http://www.w3.org/2000/svg" viewBox="0 0 15.68 16.9"><defs><style>.cls-1{fill:#6db2be;}.cls-2{fill:#90ccc6;}</style></defs><title>Asset 10</title><g id="Layer_2" data-name="Layer 2"><g id="Layer_1-2" data-name="Layer 1"><path class="cls-1" d="M0,0H0A3.89,3.89,0,0,1,3.89,3.89v9.33a0,0,0,0,1,0,0h0A3.89,3.89,0,0,1,0,9.33V0A0,0,0,0,1,0,0Z"/><path class="cls-1" d="M15.68,0h0a0,0,0,0,1,0,0V9.33a3.89,3.89,0,0,1-3.89,3.89h0a0,0,0,0,1,0,0V3.89A3.89,3.89,0,0,1,15.68,0Z" transform="translate(27.47 13.22) rotate(180)"/><path class="cls-2" d="M10.34,13.62a4.81,4.81,0,0,1-1.88,3.06,1,1,0,0,1-1.24,0,4.78,4.78,0,0,1-1.88-3.06,4.84,4.84,0,0,1,.8-3.41L7.78,7.27l1.76,2.94A4.84,4.84,0,0,1,10.34,13.62Z"/></g></g></svg>