<svg xmlns="http://www.w3.org/2000/svg" viewBox="0 0 14.26 14.26"><defs><style>.cls-1{fill:#80c467;}.cls-2{fill:#fff;fill-rule:evenodd;}</style></defs><title>Asset 29</title><g id="Layer_2" data-name="Layer 2"><g id="Layer_1-2" data-name="Layer 1"><path class="cls-1" d="M7.13,14.26h0A7.13,7.13,0,0,1,0,7.13H0A7.13,7.13,0,0,1,7.13,0h0a7.13,7.13,0,0,1,7.13,7.13h0A7.13,7.13,0,0,1,7.13,14.26Z"/><path class="cls-2" d="M11,6.93a3.84,3.84,0,0,0-7.67-.07,1,1,0,0,0,0,.17,3.79,3.79,0,0,0,.55,2l-.69,2,2.13-.67A3.85,3.85,0,0,0,11,7ZM7.2,10.23A3.18,3.18,0,0,1,5.43,9.7l-1.24.4.4-1.19A3.16,3.16,0,0,1,4,7c0-.1,0-.21,0-.31a3.23,3.23,0,0,1,6.43.06,2.09,2.09,0,0,1,0,.25A3.22,3.22,0,0,1,7.2,10.23Z"/><path class="cls-2" d="M9,7.8c-.09,0-.55-.27-.64-.3s-.15,0-.21,0-.25.31-.3.37-.11.07-.21,0a2.63,2.63,0,0,1-.75-.46,3,3,0,0,1-.53-.65c-.05-.09,0-.14,0-.19s.1-.11.15-.16l0,0a.54.54,0,0,0,.06-.11.15.15,0,0,0,0-.16l-.29-.7c-.08-.18-.15-.15-.21-.15H5.91a.32.32,0,0,0-.25.12,1,1,0,0,0-.33.78,1.19,1.19,0,0,0,0,.32,2.13,2.13,0,0,0,.33.64A3.85,3.85,0,0,0,7.32,8.56c1,.38,1,.25,1.13.24a1,1,0,0,0,.64-.45.68.68,0,0,0,.05-.44S9.06,7.85,9,7.8Z"/></g></g></svg>