<svg xmlns="http://www.w3.org/2000/svg" viewBox="0 0 15.68 16.9"><defs><style>.cls-1{fill:#fff;}</style></defs><title>Asset 22</title><g id="Layer_2" data-name="Layer 2"><g id="Layer_1-2" data-name="Layer 1"><path class="cls-1" d="M3.89,13.22h0A3.89,3.89,0,0,1,0,9.33V0H0A3.89,3.89,0,0,1,3.89,3.89Z"/><path class="cls-1" d="M11.79,13.22h0a3.89,3.89,0,0,0,3.89-3.89V0h0a3.89,3.89,0,0,0-3.89,3.89Z"/><path class="cls-1" d="M10.34,13.62a4.81,4.81,0,0,1-1.88,3.06,1,1,0,0,1-1.24,0,4.78,4.78,0,0,1-1.88-3.06,4.84,4.84,0,0,1,.8-3.41L7.78,7.27l1.76,2.94A4.84,4.84,0,0,1,10.34,13.62Z"/></g></g></svg>